<svg width="223" height="69" viewBox="0 0 223 69" fill="none" xmlns="http://www.w3.org/2000/svg">
<path d="M9.87301 24.6406C19.271 19.1762 27.9648 18.617 36.569 23.5858C47.0937 29.6729 51.4214 42.1392 47.1449 53.3094C43.2653 63.4376 31.3322 70.0838 20.2441 68.2793C8.47739 66.3604 0.154913 56.677 0.0524824 44.5283C-0.0499481 32.1001 0.0268747 19.6591 0.0396786 7.23082C0.0396786 6.23961 0.0140709 5.21028 0.218932 4.24448C0.756692 1.80458 2.01147 -0.0126416 4.8283 6.62372e-05C7.56832 0.0127741 9.23281 1.63938 9.46328 4.16824C9.82179 7.99329 9.78338 11.8565 9.8602 15.7069C9.91142 18.3883 9.8602 21.0824 9.8602 24.6278L9.87301 24.6406ZM24.2901 58.6848C32.5358 58.6848 38.9633 52.4961 38.9889 44.541C39.0145 36.713 32.3437 29.9397 24.559 29.8762C16.6462 29.8253 10.0395 36.3572 10.001 44.2742C9.96263 52.5215 16.0701 58.6848 24.2901 58.6721V58.6848Z" fill="#F9F5ED"/>
<path d="M71.8419 26.2045C71.8419 19.4948 71.8547 12.7851 71.8291 6.07533C71.8163 3.00004 72.879 0.522011 76.208 0.255146C79.8571 -0.037134 81.3551 2.59339 81.5344 5.70681C81.8033 10.5485 81.8033 15.4156 81.6496 20.27C81.5472 23.574 81.9057 24.5652 85.542 22.8243C98.7811 16.4576 113.403 22.3032 118.576 35.6846C123.787 49.1803 116.591 63.6799 102.661 67.7464C87.5138 72.1688 72.2388 61.1892 71.8803 45.495C71.7267 39.0776 71.8547 32.6474 71.8547 26.2172L71.8419 26.2045ZM95.2985 58.673C103.647 58.8764 110.42 52.6114 110.637 44.5038C110.842 36.8283 104.018 29.9661 96.0923 29.8644C88.3972 29.7627 81.9953 35.8752 81.7264 43.5634C81.432 52.1158 87.1425 58.4697 95.2985 58.673Z" fill="#F9F5ED"/>
<path d="M150.06 68.4571C136.898 68.4317 126.258 57.503 126.322 44.0708C126.386 30.9563 137.551 19.9768 150.687 20.1166C164.042 20.269 175.142 31.4774 175.027 44.6808C174.912 57.9478 163.837 68.4826 150.06 68.4571ZM150.431 58.6848C158.626 58.7229 165.207 52.4199 165.194 44.5283C165.194 36.7257 158.574 30.1176 150.585 29.9397C143.031 29.7745 136.27 36.4461 136.245 44.1089C136.219 52.5088 142.185 58.6467 150.418 58.6848H150.431Z" fill="#F9F5ED"/>
<path d="M218.278 68.5078C216.14 68.6095 214.808 67.2624 213.592 65.8392C210.609 62.3445 207.446 58.9897 204.821 55.2408C202.529 51.9622 201.07 52.8264 199.06 55.3425C196.204 58.9388 193.195 62.3954 190.187 65.8646C188.1 68.2664 185.577 69.6642 182.735 67.1989C179.931 64.7717 180.878 62.0776 182.914 59.625C186.294 55.5331 189.623 51.4031 193.17 47.4509C195.18 45.2144 195.295 43.5369 193.17 41.2368C189.649 37.4626 186.422 33.4215 183.144 29.4439C181.083 26.9278 179.713 24.1067 182.786 21.5397C185.833 18.9854 188.394 20.6755 190.558 23.2044C193.439 26.5847 196.486 29.8633 199.098 33.4342C201.364 36.5222 202.888 36.0012 204.937 33.3071C207.523 29.876 210.417 26.6736 213.118 23.3315C215.244 20.7137 217.664 19.2014 220.903 21.3236C223.553 23.0646 223.489 26.0891 220.698 29.5583C217.74 33.2436 214.757 36.9289 211.518 40.3854C209.021 43.0413 208.586 45.1508 211.313 48.0355C215.039 52.0003 218.368 56.3337 221.799 60.5654C223.195 62.2937 223.259 64.2507 222.17 66.1823C221.338 67.6691 220.019 68.4443 218.304 68.5205L218.278 68.5078Z" fill="#F9F5ED"/>
<path d="M60.3828 68.47C55.5046 68.4191 51.2665 64.2255 51.2793 59.4728C51.2921 54.4786 55.7479 50.2088 60.7798 50.3867C65.6452 50.5519 69.704 54.809 69.6272 59.6761C69.5504 64.5814 65.4019 68.5208 60.3956 68.47H60.3828ZM65.8757 59.7143C65.7092 56.334 64.1728 54.0339 60.7413 53.9957C57.5404 53.9576 55.2229 55.6478 55.0949 59.117C54.9668 62.51 56.7978 64.4797 60.2292 64.6195C63.6094 64.7466 65.594 63.0818 65.8757 59.7143Z" fill="#F9F5ED"/>
</svg>
