<svg width="279" height="69" viewBox="0 0 279 69" fill="none" xmlns="http://www.w3.org/2000/svg">
<path d="M209.607 31.8398H195.454V18.0288H187.515V52.4814H195.454V38.9166H209.607V52.4814H217.546V18.0288H209.607V31.8398Z" fill="#F9F5ED"/>
<path d="M241.891 18.0288H238.536V52.4814H241.891H246.475H264.565V45.8329H246.475V38.9166H262.494V31.8398H246.475V24.6774H264.565V18.0288H246.475H241.891Z" fill="#F9F5ED"/>
<path d="M269.896 19.0031H271.299V22.3863H272.259V19.0031H273.672V18.0503H269.896V19.0031Z" fill="#F9F5ED"/>
<path d="M278.04 18.0503V18.0931L276.605 19.4635L275.138 18.0503H274.178V22.3221H275.138V19.5706L275.817 20.2237L276.605 20.9838H276.616L277.403 20.2237L278.04 19.6134V22.3221H279V18.0503H278.04Z" fill="#F9F5ED"/>
<path d="M154.733 18.0288H146.912H146.804L132.317 52.4814H140.246L150.817 27.3325L161.399 52.4814H169.328L154.841 18.0288H154.733Z" fill="#F9F5ED"/>
<path d="M109.545 34.6459C113.515 32.4833 114.464 29.0359 113.752 25.2244C113.105 21.7556 110.527 19.593 107.086 18.9827C104.205 18.4688 101.217 18.4474 98.2726 18.3832C94.3784 18.2868 90.4735 18.3618 86.5146 18.3618V52.0649C93.9146 52.0649 101.131 52.4289 108.283 51.9472C113.968 51.5617 117.064 45.8553 115.467 40.3845C114.583 37.3546 112.134 36.0913 109.545 34.6459ZM93.7851 25.0638C97.0213 25.0638 100.279 24.8176 103.472 25.1602C105.37 25.3636 106.535 26.8304 106.309 29.0573C106.104 31.1878 104.561 31.9265 102.933 32.055C99.9446 32.2905 96.9242 32.1192 93.7851 32.1192V25.0531V25.0638ZM108.337 42.8469C108.046 45.0417 106.579 45.9089 104.54 45.941C101.034 45.9945 97.5283 45.9517 93.8067 45.9517V38.6286C97.7116 38.6286 101.563 38.8428 105.327 38.8428C107.765 38.8428 108.639 40.62 108.337 42.8362V42.8469Z" fill="#F9F5ED"/>
<path d="M47.3371 16.2735C48.3079 16.2413 48.6855 15.8987 48.61 14.796C48.1569 8.22238 42.6555 1.56311 36.2588 0H32.8824C32.6559 0.0856498 32.4401 0.224831 32.2028 0.235537C22.0522 0.952854 13.9511 5.503 7.54355 13.1794C6.88554 13.9609 5.89313 14.796 6.41091 15.8452C6.8316 16.7017 8.00739 16.2842 8.84879 16.2842C21.2 16.3056 33.5512 16.2949 45.9024 16.2949C46.3878 16.2949 46.8625 16.2949 47.3479 16.2735H47.3371Z" fill="#F9F5ED"/>
<path d="M64.2294 22.2582C62.7193 22.2475 62.7193 23.4038 62.7085 24.453C62.6869 26.6692 62.6437 28.8854 62.7085 31.1016C62.7516 32.6433 62.0936 33.2214 60.5618 33.1679C58.3181 33.0929 56.0744 33.1465 53.8307 33.1465C51.587 33.1465 49.3433 33.1679 47.0996 33.1465C46.1179 33.1358 45.1687 33.2963 44.3057 33.7353C42.5474 34.6453 41.8894 36.6153 42.8602 38.6388C43.4643 39.8914 43.9282 41.765 45.9885 41.1226C48.6637 40.2875 51.3605 40.416 54.0788 40.5659C58.7604 40.8228 62.5359 42.7178 65.1032 46.7112C65.3837 47.1502 65.4484 47.9103 66.128 47.8782C66.9262 47.8354 67.0125 47.0217 67.2067 46.4757C69.9574 38.9599 70.0653 31.3692 67.7676 23.7143C67.1635 21.6908 65.5778 22.2582 64.2187 22.2475L64.2294 22.2582Z" fill="#F9F5ED"/>
<path d="M42.2017 65.8217C39.8609 63.6912 38.1026 61.0896 37.0994 58.1668C35.7833 54.3125 35.5245 50.2977 38.1997 46.861C39.6128 45.0517 39.397 43.9382 38.1457 42.1503C34.2408 36.583 36.1501 29.2921 44.467 28.1358C47.757 27.6755 51.0255 27.7504 54.294 27.8039C56.5593 27.8361 56.6671 26.6584 56.6887 24.9668C56.7103 23.211 56.4514 22.1403 54.24 22.1832C48.3071 22.3009 42.3743 22.2902 36.4306 22.1832C34.3487 22.1403 33.6151 22.772 33.6475 24.8811C33.7554 31.6903 33.6907 38.4994 33.6907 45.3086C33.6907 52.2784 33.7338 59.2481 33.6583 66.2179C33.6367 68.0593 34.2408 68.9158 36.1393 68.6589C37.9516 68.4126 39.7746 68.1771 41.5868 67.9094C43.2912 67.6525 43.4314 66.9673 42.1909 65.8324L42.2017 65.8217Z" fill="#F9F5ED"/>
<path d="M20.509 27.2905C22.3859 27.783 23.1842 28.5003 22.4291 30.6095C21.8682 32.1833 21.372 32.9755 19.5921 32.2689C18.8586 31.9799 18.0387 31.8621 17.2513 31.7764C16.5501 31.7015 15.644 31.4445 15.191 32.0334C14.6624 32.7079 15.4391 33.3395 15.7842 33.9177C17.8662 37.3865 20.002 40.8232 22.0839 44.292C23.5725 46.7866 24.6081 46.8401 26.2261 44.4205C26.7979 43.564 27.2833 42.6861 27.2725 41.5726C27.2401 35.7913 27.2401 29.9992 27.2725 24.2178C27.2725 22.8367 26.7655 22.2051 25.2985 22.2051C18.2329 22.2372 11.1782 22.2158 4.11262 22.2265C3.2928 22.2265 2.36511 22.2586 2.08465 23.1579C0.833347 27.2156 -0.396381 31.284 0.121399 36.0482C0.714689 35.545 0.962792 35.438 1.04909 35.2453C4.05868 28.7145 12.2677 25.1065 20.4982 27.2905H20.509Z" fill="#F9F5ED"/>
<path d="M55.847 46.1437C54.5849 45.7047 53.2365 45.3621 52.0176 45.5227C44.8118 45.5655 40.9501 50.4369 42.9672 56.9891C43.992 60.3401 46.1494 63.3486 49.4071 64.5477C51.9745 65.4898 53.819 62.5456 55.998 61.3572C56.203 61.2501 56.3432 61.0146 56.5374 60.8861C57.3356 60.3829 57.3464 59.762 56.7316 59.141C55.3292 57.7171 55.7823 56.9141 57.4219 56.0041C59.5793 54.805 60.4423 52.7922 59.9785 50.3405C59.547 48.0708 57.875 46.8289 55.847 46.133V46.1437Z" fill="#F9F5ED"/>
<path d="M27.2627 53.7771C27.2627 50.8971 27.2087 50.8864 24.4904 52.0855C19.6146 54.2374 14.782 54.1518 9.8631 52.0641C7.61939 51.1112 5.83952 49.5481 3.33691 47.8779C4.02729 50.5759 5.3541 52.2461 6.54068 53.9698C11.0389 60.5006 17.3493 64.5903 24.8032 67.1063C26.6478 67.7273 27.3705 67.1491 27.3058 65.1471C27.1872 61.3571 27.2735 57.5564 27.2735 53.7556L27.2627 53.7771Z" fill="#F9F5ED"/>
<path d="M9.538 33.6281C7.89836 34.0992 6.75493 35.4482 6.30187 37.1612C6.14007 37.7607 6.17243 38.4138 6.12928 38.8742C5.83803 44.9981 13.389 48.9166 17.7793 48.5633C19.3758 48.4348 18.9228 47.4606 18.3618 46.5291C16.226 43.0175 14.1764 39.4523 11.9651 35.9835C11.361 35.0414 11.2747 33.1142 9.538 33.6281Z" fill="#F9F5ED"/>
<path d="M58.5444 16.2629C60.1625 16.2201 62.5788 17.1087 63.2045 15.6955C63.8948 14.1538 61.759 12.7406 60.6264 11.4987C57.9619 8.58659 54.9955 5.98497 50.6807 3.98291C52.1693 7.26972 53.2803 9.88204 53.9491 12.6549C54.8013 16.2308 54.8445 16.3593 58.5444 16.2629Z" fill="#F9F5ED"/>
</svg>
