<svg width="188" height="57" viewBox="0 0 188 57" fill="none" xmlns="http://www.w3.org/2000/svg">
<path d="M42.4244 49.3142C42.2001 49.475 42.0256 49.5864 41.8761 49.71C39.8322 51.4912 37.726 53.1734 35.2958 54.398C32.9777 55.5607 30.5101 56.1791 27.9179 56.3647C22.0979 56.7976 16.7639 55.3999 11.9657 52.122C6.32016 48.2628 2.79323 42.8946 0.973689 36.3884C0.163618 33.4322 -0.11056 30.4017 0.0389914 27.3465C0.400408 19.6529 3.03003 12.8745 8.55097 7.37022C12.4518 3.47392 17.2 1.16087 22.6711 0.319765C24.5779 0.0229041 26.4847 -0.0760496 28.3915 0.0600117C32.8531 0.393981 36.9284 1.86592 40.58 4.45108C44.2564 7.06099 46.9733 10.413 48.556 14.6309C48.8178 15.3113 48.8178 15.336 48.1697 15.67C45.7769 16.8945 43.3841 18.1067 40.9912 19.3313C40.8915 19.3807 40.7669 19.4178 40.6049 19.4673C40.4927 19.2447 40.3806 19.0344 40.2933 18.8241C39.0471 16.1153 37.402 13.728 34.9593 11.9345C32.6911 10.2646 30.1612 9.41114 27.3322 9.27508C23.6806 9.10191 20.4653 10.1409 17.6612 12.4416C14.8945 14.7175 13.1497 17.6738 12.053 21.0258C11.38 23.0791 11.031 25.1943 10.8815 27.3589C10.6073 31.4902 11.2803 35.4112 13.2992 39.0478C15.8292 43.612 19.6801 46.4446 24.8895 47.2733C32.3422 48.4608 38.4364 43.711 40.4553 38.4046C40.6921 37.7985 40.8167 37.1429 41.0286 36.4255H40.2684C36.5919 36.4255 32.9154 36.4255 29.239 36.4255C28.7031 36.4255 28.5784 36.2647 28.5784 35.7576C28.6034 33.4693 28.6034 31.1686 28.5784 28.8679C28.5784 28.4103 28.7155 28.2866 29.1642 28.2866C36.1059 28.2989 43.0351 28.2989 49.9768 28.2866C50.4504 28.2866 50.575 28.4474 50.5501 28.8803C50.4379 31.4778 50.3382 34.0754 50.2385 36.6605C50.1263 39.4312 50.0266 42.1896 49.9269 44.9603C49.8646 46.5435 49.7898 48.1392 49.7275 49.7224C49.6528 51.3799 49.578 53.0374 49.5281 54.6948C49.5281 55.0041 49.4035 55.1154 49.0919 55.1154C47.2225 55.1154 45.3656 55.1154 43.4962 55.1154C43.2096 55.1154 43.1099 55.0164 43.0725 54.7319C42.9105 53.2229 42.736 51.7139 42.5615 50.2048C42.5366 49.9327 42.4743 49.6729 42.412 49.3142H42.4244Z" fill="#F9F5ED"/>
<path d="M89.8314 41.9804C91.6135 44.0956 93.3708 46.186 95.2277 48.4C93.9316 49.5875 92.7227 50.812 91.4017 51.8882C88.1739 54.5228 84.4475 55.9824 80.2975 56.4771C74.6519 57.1451 69.455 56.0566 64.8189 52.7416C60.594 49.7235 58.1514 45.5428 56.9674 40.558C56.3318 37.8986 56.095 35.1773 56.2695 32.4685C56.6558 26.4323 58.8617 21.163 63.3607 16.9822C66.3518 14.1992 69.9161 12.4675 73.9789 11.849C79.126 11.0574 83.9241 11.9974 88.3234 14.7558C92.0124 17.0688 94.4799 20.3838 96.0129 24.4161C96.9725 26.9271 97.5208 29.5246 97.6579 32.2087C97.7327 33.5446 97.7202 34.8681 97.7701 36.204C97.7825 36.5998 97.6455 36.7482 97.2342 36.7359C95.3025 36.7235 93.3708 36.7359 91.4391 36.7359C83.5627 36.7111 75.6738 36.674 67.7974 36.6493C66.7257 36.6493 66.6384 36.7235 66.7257 37.6636C66.8627 39.2716 67.1618 40.8548 67.8971 42.3144C69.4799 45.4685 72.0597 47.3115 75.5243 47.93C79.612 48.6598 83.1888 47.5095 86.3418 44.9119C87.4012 44.0337 88.448 43.1431 89.5074 42.2649C89.5946 42.1907 89.6943 42.1288 89.8438 42.0175L89.8314 41.9804ZM77.107 28.5969C80.2601 28.5969 83.4131 28.5969 86.5786 28.5969C87.2018 28.5969 87.2267 28.5474 87.1145 27.9414C86.8902 26.7044 86.4291 25.5417 85.7935 24.4532C83.7496 20.8785 79.5996 18.9613 75.5617 19.6911C71.1873 20.4951 68.1215 23.4637 67.1992 27.7929C67.0372 28.5351 67.0871 28.5846 67.8473 28.5846C70.938 28.5846 74.0163 28.5846 77.107 28.5846V28.5969Z" fill="#F9F5ED"/>
<path d="M140.03 17.5991C140.118 17.426 140.168 17.2281 140.292 17.092C142.847 14.3089 145.988 12.5401 149.776 12.1567C154.5 11.6743 158.949 12.5896 162.862 15.385C165.89 17.5373 167.623 20.5554 168.333 24.1548C168.533 25.132 168.508 26.1586 168.57 27.1605C168.595 27.6553 168.57 28.1501 168.57 28.6448C168.595 35.7077 168.632 42.7829 168.657 49.8457C168.657 51.6392 168.595 53.4328 168.582 55.2263C168.582 55.6097 168.433 55.7211 168.059 55.7211C166.401 55.7087 164.744 55.7211 163.086 55.7211C161.765 55.7211 160.444 55.7211 159.061 55.7211C159.048 55.4366 159.024 55.2016 159.024 54.9789C159.024 46.4318 159.024 37.897 159.024 29.3499C159.024 24.8599 156.095 21.6686 151.596 21.1986C148.829 20.9141 146.175 21.2357 143.782 22.7076C141.127 24.3527 139.719 26.8018 139.694 29.8941C139.644 38.2186 139.682 46.5307 139.682 54.8552C139.682 55.3665 139.428 55.6221 138.921 55.6221C136.08 55.6221 133.226 55.6221 130.384 55.6221C129.886 55.6221 129.736 55.4737 129.736 54.9789C129.749 47.8419 129.736 40.7048 129.749 33.5554C129.761 26.9626 129.799 20.3822 129.836 13.7894C129.836 13.3029 130.081 13.0555 130.571 13.0473C133.4 13.0473 136.229 13.0473 139.058 13.0473C139.806 13.0473 139.831 13.1091 139.794 13.8265C139.744 14.8779 139.731 15.9417 139.706 17.0054C139.706 17.1415 139.756 17.2775 139.781 17.426C139.856 17.4754 139.943 17.5249 140.018 17.5868L140.03 17.5991Z" fill="#F9F5ED"/>
<path d="M113.388 17.3401C113.812 16.8083 114.248 16.2887 114.647 15.7445C116.143 13.7407 118.186 12.813 120.629 12.6769C121.813 12.6151 123.01 12.6151 124.193 12.578C124.542 12.5656 124.68 12.6893 124.68 13.048C124.68 15.8187 124.68 18.5894 124.68 21.3725C124.68 21.7931 124.48 21.8178 124.144 21.8425C122.71 21.9415 121.24 21.9538 119.832 22.2136C117.165 22.7207 115.258 24.3411 113.912 26.6418C113.787 26.8521 113.675 27.0623 113.55 27.2602C113.077 28.0519 112.865 28.893 112.865 29.8454C112.89 38.1699 112.877 46.482 112.877 54.8065C112.877 55.3013 112.636 55.5486 112.155 55.5486C109.375 55.5486 106.596 55.5486 103.83 55.5734C103.356 55.5734 103.219 55.4373 103.206 54.9673C103.194 41.1014 103.157 27.2355 103.119 13.382C103.119 12.9738 103.219 12.7883 103.667 12.813C104.652 12.8625 105.624 12.8996 106.609 12.8996C108.553 12.912 110.509 12.8996 112.454 12.8996C113.176 12.8996 113.176 12.8996 113.164 13.5923C113.164 14.656 113.164 15.7198 113.164 16.7711C113.164 16.9567 113.189 17.1299 113.201 17.3154C113.251 17.3401 113.314 17.3525 113.363 17.3772L113.388 17.3401Z" fill="#F9F5ED"/>
<path d="M177.58 34.7189C177.58 27.854 177.58 20.9891 177.58 14.1242C177.58 13.6459 177.825 13.4067 178.315 13.4067C181.281 13.4067 184.248 13.4067 187.214 13.4067C187.675 13.4067 187.837 13.5181 187.837 14.0128C187.837 27.8292 187.837 41.6457 187.837 55.4621C187.837 55.9445 187.687 56.0682 187.214 56.0682C184.235 56.0558 181.244 56.0682 178.266 56.0682C177.809 56.0682 177.58 55.8455 177.58 55.4002C177.58 48.5229 177.58 41.6333 177.58 34.756V34.7189Z" fill="#F9F5ED"/>
<path d="M182.789 0.443848C184.26 0.443848 185.718 0.456217 187.188 0.443848C187.625 0.443848 187.749 0.592278 187.737 1.01283C187.724 3.80827 187.724 6.59135 187.737 9.38679C187.737 9.78261 187.625 9.93104 187.201 9.91867C184.235 9.9063 181.269 9.9063 178.303 9.91867C177.891 9.91867 177.767 9.78261 177.779 9.38679C177.792 6.59135 177.792 3.80827 177.779 1.01283C177.779 0.592278 177.904 0.443848 178.34 0.456217C179.823 0.480955 181.306 0.456217 182.789 0.456217V0.443848Z" fill="#F9F5ED"/>
</svg>
