<svg width="184" height="73" viewBox="0 0 184 73" fill="none" xmlns="http://www.w3.org/2000/svg">
<path d="M0 39.6466C0 30.059 0 20.4713 0 10.8984C0.0148388 4.80119 4.82261 0 10.9065 0C17.0349 0 21.8427 4.74227 21.8427 10.8542C21.8427 25.4492 21.8427 40.0442 21.8427 54.6393C21.8427 64.7865 12.2717 73.2991 2.12195 72.2387C0.385809 72.0472 0 71.031 0 69.5141C0.0296776 60.2505 0 50.9721 0 41.7085C0 41.0163 0 40.3241 0 39.6466Z" fill="#F9F5ED"/>
<path d="M159.637 43.5624C159.637 50.5138 159.637 57.4652 159.622 64.4166C159.622 65.7569 159.919 66.8025 161.076 67.6567C162.961 69.0705 162.649 70.882 160.468 71.7951C156.268 73.5477 151.327 71.9277 149.042 67.966C148.329 66.7141 147.884 67.5242 147.38 68.0249C143.269 72.0455 138.209 72.8703 132.823 72.0161C127.763 71.2208 123.934 68.3489 121.842 63.7244C117.984 55.2266 118.103 46.773 123.371 38.8643C127.08 33.312 132.749 31.5742 139.204 32.0749C142.157 32.3106 144.872 33.2678 147.172 35.1972C148.077 35.9483 148.478 35.7274 148.463 34.5639C148.433 31.5005 148.448 28.4225 148.448 25.3591C148.448 24.0926 147.677 23.2826 146.771 22.5609C145.807 21.8098 145.154 20.9114 145.599 19.6449C146.029 18.393 147.157 18.3488 148.27 18.3488C150.852 18.3488 153.449 18.3341 156.031 18.3488C158.405 18.3783 159.34 19.2325 159.577 21.5594C159.637 22.178 159.622 22.8113 159.622 23.4298C159.622 30.1309 159.622 36.8319 159.622 43.533L159.637 43.5624ZM148.478 53.8717C148.478 52.3106 148.389 50.7347 148.493 49.1736C148.775 45.3297 147.335 42.0749 145.065 39.1147C140.866 33.6655 134.396 34.4313 131.606 40.72C131.309 41.3975 131.131 42.1338 130.938 42.8702C129.647 47.966 130.464 52.9291 132.126 57.7745C133.031 60.396 134.262 62.885 136.444 64.7259C138.699 66.6405 141.251 67.6125 144.115 66.2281C146.89 64.8879 148.804 62.9144 148.508 59.4829C148.344 57.6125 148.478 55.7274 148.478 53.857V53.8717Z" fill="#F9F5ED"/>
<path d="M76.6727 72.2671C69.0604 72.3408 62.7242 69.734 58.8958 62.9593C52.4855 51.5896 57.0558 34.0491 73.7198 32.1934C79.0766 31.6043 84.2257 32.0167 88.6921 35.2715C94.7315 39.675 93.8857 47.5543 87.1341 50.7943C83.2018 52.6795 78.9876 53.3569 74.714 53.7693C73.0224 53.9313 71.3307 54.0786 69.6391 54.1669C68.4372 54.2406 68.3481 54.8002 68.6746 55.8017C71.6424 65.1095 82.1927 67.9667 89.4192 61.4424C90.2947 60.6471 91.1554 59.1596 92.5651 60.058C93.9006 60.9269 93.3218 62.4586 92.9509 63.6957C92.0605 66.5528 89.9831 68.438 87.4308 69.8371C84.1218 71.6633 81.4211 72.2377 76.6875 72.2671H76.6727ZM67.3094 46.9799C67.3094 47.9225 67.3094 48.8503 67.3094 49.7929C67.3094 50.4851 67.6656 50.8091 68.3778 50.7796C72.043 50.6323 75.7082 50.4114 79.0024 48.5852C82.7269 46.5381 83.8102 41.9283 81.4953 38.3643C79.4476 35.2126 74.9811 34.4909 71.6572 36.9062C68.2443 39.3805 67.2501 42.9887 67.2946 46.9799H67.3094Z" fill="#F9F5ED"/>
<path d="M50.1549 59.8381C50.1549 63.034 50.1846 66.2299 50.1549 69.4111C50.1253 71.6497 49.5466 72.1062 47.3504 72.2535C37.3639 72.9457 28.1045 64.6835 28.1045 53.9029C28.1045 47.7615 28.1045 41.6349 28.1045 35.4935C28.1045 32.9014 28.7574 32.3123 31.369 32.2976C41.7413 32.2092 49.9472 40.2063 50.1401 50.6481C50.1995 53.7115 50.1401 56.7895 50.1401 59.8529L50.1549 59.8381Z" fill="#F9F5ED"/>
<path d="M181.212 50.7229C181.212 55.4799 181.242 60.2369 181.197 64.9939C181.197 66.4077 181.464 67.5565 182.755 68.3665C183.749 68.9851 184.18 69.9865 183.809 71.1353C183.438 72.284 182.384 72.2251 181.449 72.2251C177.413 72.2398 173.377 72.2251 169.341 72.2693C168.525 72.2693 167.812 72.1515 167.471 71.3267C167.085 70.4284 167.159 69.4711 167.946 68.9261C170.068 67.4534 170.127 65.3915 170.098 63.1235C170.023 55.421 170.038 47.7185 170.098 40.0159C170.098 38.5285 169.741 37.365 168.495 36.4371C167.575 35.7597 166.803 34.8466 167.278 33.5505C167.783 32.1809 169 32.2692 170.142 32.2692C172.665 32.2692 175.187 32.2545 177.71 32.2692C180.247 32.2987 181.167 33.2265 181.197 35.8775C181.242 40.826 181.197 45.7744 181.197 50.7229H181.212Z" fill="#F9F5ED"/>
<path d="M111.972 50.5732C111.972 55.3302 112.016 60.0872 111.942 64.8442C111.912 66.3611 112.358 67.5099 113.604 68.3788C114.465 68.9827 115.177 69.7485 114.806 70.8972C114.405 72.1785 113.278 72.2227 112.18 72.2227C108.396 72.2227 104.612 72.2227 100.828 72.2227C99.7892 72.2227 98.7208 72.2227 98.2608 71.0887C97.7859 69.9105 98.3498 68.9974 99.2995 68.3346C100.754 67.3184 101.006 65.9635 100.976 64.2551C100.872 57.1859 100.724 50.1166 101.05 43.0474C101.169 40.3375 101.451 37.6424 98.6614 35.8309C97.8601 35.3154 97.9492 34.2403 98.2756 33.3861C98.5724 32.5908 99.3143 32.311 100.116 32.311C103.202 32.2963 106.303 32.2521 109.39 32.311C111.156 32.3552 111.972 33.4156 111.972 35.5364C112.001 40.5437 111.972 45.5511 111.972 50.5585V50.5732Z" fill="#F9F5ED"/>
<path d="M45.2878 18.0413C45.2284 22.6952 41.311 26.4065 36.5774 26.2887C31.918 26.1709 28.0896 22.3122 28.1935 17.8498C28.2973 13.2695 32.2593 9.66127 37.0819 9.74964C41.7264 9.838 45.3471 13.5052 45.3026 18.056L45.2878 18.0413Z" fill="#F9F5ED"/>
<path d="M105.965 28.615C102.241 28.615 99.6588 26.2881 99.733 23.048C99.822 19.6754 102.315 17.3779 105.965 17.3484C109.749 17.319 112.316 19.6017 112.346 23.0333C112.376 26.4206 109.853 28.6297 105.965 28.615Z" fill="#F9F5ED"/>
<path d="M175.129 28.6295C171.345 28.6147 168.926 26.4498 168.911 23.0919C168.911 19.7487 171.552 17.3629 175.277 17.3481C178.853 17.3481 181.509 19.7929 181.435 23.0477C181.361 26.6707 179.135 28.6442 175.129 28.6295Z" fill="#F9F5ED"/>
</svg>
