<svg width="238" height="116" viewBox="0 0 238 116" fill="none" xmlns="http://www.w3.org/2000/svg">
<path d="M50.2272 65.9299H72.6797V87.7949H83.9482V65.9299V54.7459V32.8809H72.6797V54.7459H50.2272V32.8809H38.9756V54.7459V65.9299V87.7949H50.2272V65.9299Z" fill="#F9F5ED"/>
<path d="M145.495 51.3757V46.949H134.227V87.795H145.495V59.1894C149.06 55.2825 157.101 56.909 157.101 56.909V46.949C150.023 45.8423 146.762 49.3468 145.495 51.3757Z" fill="#F9F5ED"/>
<path d="M186.361 46.9492L178.607 68.8813L170.852 46.9492H159.584L171.241 79.9144L174.062 86.0681C174.062 86.0681 175.6 95.2568 164.534 95.2568V103.003C164.534 103.003 176.411 105.703 179.958 95.6257C183.489 85.5483 185.973 79.9312 185.973 79.9312L197.63 46.966H186.361V46.9492Z" fill="#F9F5ED"/>
<path d="M127.4 87.7956V58.1168C127.4 51.9463 122.365 46.9328 116.131 46.9328C106.806 45.8262 102.295 52.1979 102.295 52.1979V46.9328H91.0264V87.7788H102.295V58.8378C110.353 49.1461 116.131 58.5025 116.131 58.5025V87.762H127.4V87.7956Z" fill="#F9F5ED"/>
<path d="M142.367 37.4252L157.099 28.1024L140.847 18.7964L142.367 37.4252Z" fill="#F9F5ED"/>
<path d="M53.7738 21.1943H61.4607V14.4202H68.286V6.77413H61.4607V0H53.7738V6.77413H46.9316V14.4202H53.7738V21.1943Z" fill="#F9F5ED"/>
<path d="M137.249 97.7725L133.11 101.864L128.97 97.7725L124.308 102.384L128.447 106.492L124.308 110.6L128.97 115.228L133.11 111.119L137.249 115.228L141.895 110.6L137.755 106.492L141.895 102.384L137.249 97.7725Z" fill="#F9F5ED"/>
<path d="M196.431 88.2653C195.839 87.6785 194.893 87.6785 194.302 88.2653C193.711 88.8522 193.711 89.7912 194.302 90.3781L199.843 95.8779L194.606 101.076C194.015 101.663 194.015 102.602 194.606 103.189C194.893 103.474 195.282 103.625 195.67 103.625C196.059 103.625 196.431 103.474 196.735 103.189L203.036 96.9342C203.628 96.3474 203.628 95.4084 203.036 94.8215L196.447 88.2821L196.431 88.2653Z" fill="#F9F5ED"/>
<path d="M208.356 88.2653C207.765 87.6785 206.819 87.6785 206.228 88.2653C205.636 88.8522 205.636 89.7912 206.228 90.3781L211.769 95.8779L206.532 101.076C205.94 101.663 205.94 102.602 206.532 103.189C206.819 103.474 207.208 103.625 207.596 103.625C207.985 103.625 208.356 103.474 208.66 103.189L214.962 96.9342C215.553 96.3474 215.553 95.4084 214.962 94.8215L208.373 88.2821L208.356 88.2653Z" fill="#F9F5ED"/>
<path d="M219.236 88.2653C218.645 87.6785 217.699 87.6785 217.108 88.2653C216.516 88.8522 216.516 89.7912 217.108 90.3781L222.649 95.8779L217.412 101.076C216.82 101.663 216.82 102.602 217.412 103.189C217.699 103.474 218.087 103.625 218.476 103.625C218.865 103.625 219.236 103.474 219.54 103.189L225.842 96.9342C226.433 96.3474 226.433 95.4084 225.842 94.8215L219.253 88.2821L219.236 88.2653Z" fill="#F9F5ED"/>
<path d="M236.586 94.8047L229.997 88.2653C229.406 87.6785 228.46 87.6785 227.868 88.2653C227.277 88.8522 227.277 89.7912 227.868 90.3781L233.41 95.8779L228.172 101.076C227.581 101.663 227.581 102.602 228.172 103.189C228.46 103.474 228.848 103.625 229.237 103.625C229.625 103.625 229.997 103.474 230.301 103.189L236.603 96.9342C236.89 96.6492 237.042 96.2803 237.042 95.8779C237.042 95.4754 236.89 95.1065 236.603 94.8215L236.586 94.8047Z" fill="#F9F5ED"/>
<path d="M9.64663 49.3145C4.30804 49.3145 0 53.607 0 58.8888C0 64.1706 4.32494 68.4631 9.64663 68.4631C14.9683 68.4631 19.2933 64.1706 19.2933 58.8888C19.2933 53.607 14.9683 49.3145 9.64663 49.3145ZM9.64663 63.5166C7.0787 63.5166 5.00071 61.4542 5.00071 58.9055C5.00071 56.3569 7.0787 54.2944 9.64663 54.2944C12.2146 54.2944 14.2926 56.3569 14.2926 58.9055C14.2926 61.4542 12.2146 63.5166 9.64663 63.5166Z" fill="#F9F5ED"/>
<path d="M221.248 29.109C221.248 23.8104 216.923 19.5347 211.602 19.5347C206.28 19.5347 201.955 23.8272 201.955 29.109C201.955 34.3908 206.28 38.6833 211.602 38.6833C216.923 38.6833 221.248 34.3908 221.248 29.109ZM206.939 29.109C206.939 26.5603 209.017 24.4979 211.585 24.4979C214.153 24.4979 216.231 26.5603 216.231 29.109C216.231 31.6577 214.153 33.7201 211.585 33.7201C209.017 33.7201 206.939 31.6577 206.939 29.109Z" fill="#F9F5ED"/>
<path d="M87.8505 97.6208C83.3228 95.6758 79.2513 95.7093 75.0446 97.7549C72.0881 99.1802 68.5572 99.0796 65.6007 97.4699L64.2661 96.7489C61.5292 95.2566 58.2517 95.2733 55.5317 96.7992L54.0788 97.604C50.8351 99.4149 46.8143 98.04 44.7025 97.0675C40.7999 95.2566 37.1339 95.5249 32.7752 97.8891C31.8122 98.4257 31.4574 99.6329 31.9811 100.589C32.5048 101.544 33.7381 101.897 34.7011 101.377C37.9448 99.5994 40.2762 99.4149 42.9962 100.673C47.8449 102.919 52.4739 103.054 56.0217 101.075L57.4746 100.27C58.9951 99.4317 60.8028 99.4149 62.3401 100.253L63.6748 100.974C65.8373 102.148 68.2362 102.735 70.6183 102.735C72.7301 102.735 74.8419 102.265 76.7848 101.326C79.944 99.8006 82.7822 99.7838 86.2455 101.276C87.2592 101.712 88.4418 101.243 88.8811 100.237C89.3203 99.2305 88.8473 98.0568 87.8336 97.6208H87.8505Z" fill="#F9F5ED"/>
</svg>
