<svg width="242" height="52" viewBox="0 0 242 52" fill="none" xmlns="http://www.w3.org/2000/svg">
<path d="M46.6345 30.3328C46.6211 28.8897 46.5945 27.4466 46.5544 26.0034C46.5011 24.2955 46.2476 22.7597 45.8074 21.396C45.7674 21.2901 45.7407 21.1709 45.7007 21.0518C45.7007 21.0518 45.7007 21.0518 45.7007 21.0385C44.5802 17.8875 42.3791 15.6897 39.2576 14.5246C38.0704 14.0877 36.7631 13.7832 35.3224 13.6375C34.2285 13.5316 33.188 13.5449 32.1742 13.6375C29.4529 13.8891 27.0384 14.9218 25.0508 16.8945C24.4505 17.4903 23.8903 18.1258 23.37 18.8937C23.29 19.0129 23.2233 19.1188 23.1432 19.2379C22.8631 19.6881 22.583 20.1912 22.1695 20.8929C22.1695 19.8205 22.1695 18.8407 22.1695 17.9007C22.1695 16.9607 22.1694 16.0736 22.1961 15.1733C22.2095 14.4319 21.9694 14.2069 21.2223 14.2201C20.7821 14.2201 20.3286 14.2201 19.8884 14.2201C18.5277 14.2333 17.1671 14.2333 15.8064 14.2201C14.9793 14.2201 14.1656 14.2201 13.3386 14.1936C12.5515 14.1804 12.4048 14.4584 12.4048 15.1601C12.4048 21.2371 12.4048 27.3142 12.4048 33.3912C12.4048 38.8592 12.4048 44.3272 12.4048 49.8084C12.4048 50.0203 12.4315 50.1791 12.4581 50.3115C12.5515 50.6425 12.7783 50.7617 13.3252 50.7484C16.0332 50.6955 18.7411 50.6955 21.4491 50.7484C22.3429 50.7617 22.4763 50.4572 22.4763 49.6628C22.4629 47.0016 22.4763 44.3272 22.4763 41.666C22.4763 38.4752 22.4629 35.2845 22.4763 32.0937C22.4763 32.0937 22.4763 32.0805 22.4763 32.0672C22.4763 30.8359 22.5296 29.6046 22.6363 28.3733C22.6764 27.8305 22.8098 27.3009 22.9565 26.7978C23.7035 24.4014 25.6378 22.5346 28.119 21.9918C28.279 21.9521 28.4258 21.9521 28.5858 21.9256C30.4934 21.5946 32.1876 21.8594 33.5215 22.6803C34.9622 23.5673 35.9627 25.0766 36.3496 27.0891C36.5497 28.1483 36.5763 29.2472 36.5763 30.3196C36.5897 34.3974 36.5763 38.4752 36.5763 42.5531C36.5763 44.9362 36.5763 47.3061 36.5763 49.6893C36.5763 49.9011 36.563 50.0997 36.5763 50.2718C36.603 50.4174 36.6564 50.5498 36.8031 50.6293C36.9232 50.7087 37.0966 50.7484 37.3767 50.7484C39.2176 50.7087 41.0451 50.7087 42.886 50.722C43.8732 50.722 44.8736 50.722 45.8608 50.7352C46.1276 50.7352 46.3277 50.722 46.4477 50.616C46.4744 50.5896 46.4877 50.5498 46.5011 50.5234C46.5811 50.4174 46.6345 50.2718 46.6345 50.0203C46.6345 49.6893 46.6345 49.345 46.6345 49.014C46.6345 42.7781 46.6878 36.529 46.6078 30.3063L46.6345 30.3328Z" fill="#F9F5ED"/>
<path d="M8.57743 1.0327C7.68367 0.383951 6.57648 0 5.34922 0C3.81516 0 2.48119 0.569307 1.52073 1.49609C0.573607 2.42287 0 3.72036 0 5.18997C0 8.02326 2.37447 10.3005 5.29586 10.3137C8.2973 10.3137 10.6984 8.0365 10.6984 5.17673C10.6984 3.44232 9.87138 1.95948 8.57743 1.0327Z" fill="#F9F5ED"/>
<path d="M215.582 47.5836C215.329 46.6039 214.475 45.9022 213.341 45.7433C213.181 45.7169 213.021 45.7036 212.848 45.7036C210.753 45.7036 208.659 45.7036 206.551 45.7036C206.351 45.7036 206.164 45.7036 205.964 45.7036C204.017 45.7036 202.082 45.7036 200.135 45.7036C199.761 45.7036 199.414 45.7698 199.108 45.8757C198.147 46.2067 197.547 47.0143 197.48 48.0735C197.4 49.5431 198.361 50.8009 199.895 50.8274C202.336 50.8671 204.777 50.8936 207.205 50.8803C209.166 50.8803 211.127 50.8803 213.074 50.8406C214.675 50.8141 215.702 49.5431 215.636 48.0735C215.636 47.9014 215.609 47.7425 215.569 47.5969C215.569 47.5969 215.569 47.5969 215.569 47.5836H215.582Z" fill="#F9F5ED"/>
<path d="M126.673 15.9533C120.043 12.3786 113.173 12.4977 106.49 15.8606C103.155 17.5421 101.141 20.4283 100.514 24.1619C100.394 24.8901 100.26 25.5389 101.488 25.4859C103.862 25.38 106.25 25.4329 108.638 25.4727C109.331 25.4727 109.718 25.3403 109.905 24.5856C110.158 23.5397 110.839 22.7188 111.759 22.1362C114.12 20.6534 116.628 20.6269 119.216 21.4743C120.63 21.9377 121.511 22.9836 122.017 24.2943C122.511 25.5521 122.298 26.9158 122.324 28.2265C122.324 28.7429 121.977 28.6502 121.657 28.6767C119.363 28.8223 117.055 28.9547 114.761 29.1268C111.426 29.3784 108.077 29.6432 104.956 31.0466C101.754 32.4897 99.5134 34.714 98.9398 38.3152C98.7263 39.6391 98.673 40.9366 98.9531 42.2606C99.0198 42.5651 99.2866 43.0285 98.6596 43.2403C95.6849 44.2466 92.8035 42.34 92.7902 39.242C92.7501 33.7078 92.7902 28.1736 92.7635 22.6394C92.7635 21.845 93.057 21.7126 93.7506 21.7258C95.4047 21.7655 97.0589 21.7258 98.7263 21.7523C99.3133 21.7523 99.6068 21.6729 99.5934 20.9844C99.5534 19.0249 99.5534 17.0522 99.5934 15.0927C99.6068 14.3645 99.3266 14.2321 98.673 14.2454C97.1389 14.2851 95.5915 14.1792 94.0708 14.2851C92.9369 14.3645 92.7368 13.9541 92.7768 12.9347C92.8569 10.856 92.7768 8.76414 92.8168 6.68551C92.8302 5.9838 92.6034 5.79845 91.9231 5.81169C89.1751 5.8514 86.4271 5.8514 83.6791 5.81169C82.9054 5.81169 82.7454 6.06324 82.7587 6.77818C82.7987 8.98922 82.7587 11.187 82.7854 13.398C82.7854 14.06 82.6386 14.3116 81.9316 14.2719C80.7978 14.2057 79.6639 14.3116 78.5434 14.2454C77.703 14.1924 77.5162 14.5234 77.5429 15.2781C77.5962 16.7742 77.5562 18.2835 77.5562 20.1371C76.2223 18.1908 74.8749 16.7874 73.1274 15.8341C67.8583 12.9744 62.3356 12.9347 56.6929 14.4175C53.4914 15.2648 50.7834 16.9728 49.156 19.8723C46.3547 24.9033 47.6486 31.6688 54.5319 34.383C57.2932 35.4686 60.1879 35.9982 63.056 36.647C64.6301 36.9912 66.2041 37.2957 67.6848 37.9842C68.8988 38.5535 69.6725 39.3876 69.6458 40.738C69.6191 42.0885 68.9388 43.0815 67.6982 43.6773C65.8573 44.5776 63.8964 44.7629 61.9221 44.4319C59.4142 44.0083 57.4133 42.8696 56.813 40.1687C56.6662 39.52 56.226 39.7451 55.8792 39.7318C53.1712 39.7186 50.4633 39.7583 47.7553 39.7053C46.8482 39.6789 46.7815 40.0496 46.9149 40.7513C47.6486 44.4584 49.6095 47.2917 52.9445 49.1585C57.4933 51.7005 62.4157 51.8726 67.4047 51.2371C71.0464 50.787 74.2747 49.3438 76.9293 46.7091C80.7844 42.8696 81.4514 33.7342 73.4876 30.9009C69.8192 29.6034 66.004 28.9547 62.2289 28.1206C60.9616 27.8426 59.721 27.4851 58.6939 26.6642C57.0531 25.3403 57.0398 23.0895 58.7339 21.8185C60.7615 20.3092 63.056 20.1768 65.4304 20.7593C67.4447 21.2624 68.9254 22.4275 69.3123 24.5856C69.419 25.1681 69.6858 25.2476 70.206 25.2476C72.1803 25.2211 74.1679 25.2476 76.1422 25.2476C78.9169 25.2476 78.9569 25.2476 78.3699 22.5334C78.2099 21.8053 78.45 21.7258 79.0369 21.7391C79.8907 21.7523 80.7444 21.8053 81.5848 21.7391C82.5453 21.6464 82.7854 21.9641 82.7854 22.9174C82.7454 29.1665 82.7454 35.4289 82.772 41.6913C82.7854 46.2325 84.773 49.0658 88.7749 50.2309C92.0031 51.1709 95.3114 51.1445 98.6196 50.734C99.34 50.6413 99.6201 50.3633 99.5801 49.5822C99.5134 48.1126 99.5534 46.643 99.5534 45.1601C104.449 53.5938 117.802 53.2496 122.538 45.0542C122.538 46.921 122.578 48.4436 122.524 49.9529C122.498 50.6546 122.724 50.8135 123.405 50.8002C126.073 50.7605 128.741 50.7605 131.409 50.8002C132.102 50.8002 132.276 50.5884 132.276 49.9132C132.249 41.8502 132.262 33.7872 132.262 25.7242C132.262 21.4213 130.408 17.979 126.673 15.9798V15.9533ZM122.311 36.7264C122.631 41.3073 118.976 43.6508 115.401 44.0215C114 44.1671 112.586 44.1406 111.252 43.5051C109.638 42.724 108.771 41.4662 108.758 39.7186C108.744 38.0371 109.652 36.872 111.146 36.1174C112.586 35.3892 114.16 35.27 115.721 35.1641C117.575 35.0317 119.443 35.0185 121.284 34.8199C122.164 34.7272 122.458 34.9258 122.338 35.7731C122.298 36.0909 122.338 36.4087 122.338 36.7396L122.311 36.7264Z" fill="#F9F5ED"/>
<path d="M189.57 45.9164C189.57 45.8237 189.57 45.7178 189.584 45.6251C189.624 44.8439 189.81 43.9569 189.45 43.4405C188.997 42.7785 187.89 43.4008 187.076 43.2949C186.942 43.2817 186.809 43.2684 186.676 43.2684C186.609 43.2684 186.542 43.2684 186.476 43.2552C184.701 43.1095 183.554 42.3681 183.074 41.0177C182.914 40.5675 182.834 40.0512 182.834 39.4554C182.82 36.9001 182.82 34.3581 182.82 31.8028C182.82 31.3262 182.82 30.8496 182.82 30.3862C182.82 27.7912 182.82 25.2094 182.82 22.6145C182.82 22.2835 182.874 22.0452 183.007 21.8995C183.141 21.7539 183.367 21.7009 183.714 21.7009C183.994 21.7009 184.275 21.7009 184.555 21.7009C185.929 21.7009 187.316 21.7009 188.69 21.7274C189.33 21.7406 189.637 21.6082 189.61 20.8801C189.61 20.602 189.61 20.324 189.61 20.046C189.584 18.4042 189.584 16.7493 189.637 15.1075C189.637 14.7104 189.57 14.472 189.41 14.3529C189.25 14.2205 188.997 14.194 188.65 14.2072C187.85 14.2337 187.036 14.2205 186.235 14.2072H186.209C185.408 14.2072 184.608 14.2072 183.808 14.2205C183.661 14.2205 183.554 14.2205 183.434 14.194C183.114 14.1543 182.941 13.9954 182.874 13.6777C182.847 13.5585 182.834 13.4393 182.847 13.2805C182.901 11.0827 182.847 8.87164 182.874 6.66061C182.874 6.1575 182.78 5.87947 182.394 5.78679C182.287 5.76031 182.167 5.74707 182.007 5.74707C179.219 5.78679 176.431 5.78679 173.643 5.74707C173.029 5.74707 172.829 5.93243 172.789 6.39582C172.789 6.47525 172.776 6.54145 172.776 6.64737C172.816 8.16994 172.816 9.6925 172.776 11.2151C172.776 11.599 172.829 12.0227 172.869 12.4331C172.936 13.0422 172.949 13.6379 172.589 13.9822C172.229 14.3529 171.628 14.3264 170.988 14.2734C170.828 14.2602 170.681 14.2337 170.521 14.2205C170.268 14.194 170.014 14.1675 169.788 14.1675C168.587 14.1808 168.053 14.194 167.813 14.5647C167.627 14.8428 167.6 15.3459 167.6 16.2197C167.6 16.2859 167.6 16.3388 167.6 16.405C167.6 17.9276 167.6 19.4369 167.6 20.9595C167.346 20.4167 167.08 19.9268 166.786 19.4502C166.733 19.3707 166.693 19.2648 166.653 19.1854C166.533 19 166.399 18.8411 166.266 18.6558C165.279 17.2391 164.132 16.1138 162.771 15.3061C160.837 14.141 158.542 13.5585 155.901 13.5188C150.552 13.4393 146.483 15.6107 143.842 20.4431C143.842 19.4899 143.842 18.5366 143.842 17.5701C143.842 16.7625 143.842 15.9681 143.855 15.1605C143.855 15.0016 143.855 14.856 143.829 14.7236C143.762 14.3396 143.562 14.141 142.948 14.1543C140.32 14.2072 137.692 14.194 135.064 14.1543C134.677 14.1543 134.451 14.2205 134.317 14.3661C134.291 14.3926 134.277 14.4456 134.264 14.4853C134.237 14.5382 134.197 14.5912 134.184 14.6706C134.184 14.6839 134.184 14.7104 134.184 14.7236C134.171 14.8428 134.157 14.9619 134.157 15.1208C134.171 25.2227 134.171 35.3246 134.157 45.4265C134.157 46.8696 134.157 48.3127 134.157 49.7691C134.157 49.8618 134.157 49.9147 134.171 49.9942C134.184 50.1795 134.224 50.3252 134.291 50.4311C134.371 50.5635 134.491 50.6429 134.691 50.6826C134.811 50.7091 134.931 50.7224 135.091 50.7091C137.492 50.6694 139.893 50.6562 142.294 50.7091C142.561 50.7091 142.828 50.7091 143.095 50.7091C144.055 50.7356 144.202 50.4311 144.189 49.5705C144.162 44.1025 144.162 38.6213 144.189 33.1533C144.189 32.3721 144.189 31.591 144.189 30.8098C144.189 29.8963 144.255 28.9695 144.389 28.056C144.962 23.9649 147.977 21.595 152.286 21.8201C155.567 21.9922 157.702 24.0443 158.129 27.4999C158.169 27.8706 158.222 28.2413 158.222 28.6385C158.262 31.6307 158.262 34.6229 158.262 37.6018C158.262 41.587 158.262 45.5721 158.249 49.5705C158.249 49.7426 158.262 49.875 158.289 49.9942C158.342 50.3649 158.476 50.5767 158.809 50.6562C158.956 50.6959 159.143 50.7091 159.383 50.6959C162.011 50.6297 164.638 50.6297 167.266 50.6959C167.707 50.6959 168 50.6694 168.173 50.4973C168.347 50.3384 168.414 50.0604 168.414 49.5838C168.4 48.1671 168.414 46.7505 168.414 45.3338C168.414 41.865 168.414 38.4094 168.387 34.9406C168.387 34.5699 168.387 34.186 168.387 33.8153C168.387 33.6564 168.387 33.4975 168.387 33.3386C168.387 29.658 168.694 25.9641 167.787 22.3232C167.76 22.1908 167.733 22.0849 167.747 21.9922C167.747 21.8068 167.867 21.7009 168.067 21.648C168.16 21.6347 168.254 21.6215 168.387 21.6215C169.481 21.6612 170.575 21.7009 171.655 21.6215C171.909 21.595 172.095 21.6215 172.255 21.648C172.722 21.7671 172.829 22.1378 172.829 22.8263C172.829 23.8855 172.829 24.9446 172.829 26.0038C172.802 31.3262 172.789 36.6353 172.882 41.9577C172.896 43.0566 173.056 44.1158 173.349 45.0955C173.83 46.6578 174.737 48.0215 176.257 48.9615C176.577 49.1601 176.911 49.3454 177.284 49.5043C177.991 49.8088 178.699 50.0339 179.419 50.2325C182.514 51.0798 185.729 50.9872 188.943 50.5238C189.49 50.4443 189.677 50.2193 189.65 49.6764C189.624 49.0409 189.624 48.3922 189.624 47.7567C189.624 47.7567 189.624 47.7567 189.624 47.7434C189.624 47.1079 189.624 46.4724 189.624 45.8369L189.57 45.9164Z" fill="#F9F5ED"/>
<path d="M239.888 30.0542C237.887 28.5581 235.872 27.0752 233.871 25.5924C233.031 24.9701 232.191 24.3346 231.35 23.7124C228.535 21.6205 225.734 19.5418 222.933 17.4367C222.706 17.2646 222.479 17.1322 222.266 17.0395C222.266 17.0395 222.239 17.0395 222.226 17.0395C221.906 16.9204 221.585 16.8674 221.279 16.9336C220.959 16.9998 220.638 17.1587 220.305 17.45C219.825 17.8736 219.571 18.4165 219.451 18.999C219.398 19.2771 219.358 19.5551 219.358 19.8464C219.358 20.2965 219.344 20.7467 219.331 21.1968C219.331 21.9515 219.318 22.7061 219.358 23.4608C219.424 24.4803 219.144 24.8245 218.037 24.8113C214.222 24.7715 210.393 24.7715 206.578 24.7848C204.417 24.7848 202.256 24.7848 200.095 24.798C199.108 24.798 198.374 25.1422 197.948 25.7513C197.734 26.0558 197.574 26.4133 197.507 26.8369C197.481 27.0223 197.467 27.2209 197.467 27.4195C197.467 27.7902 197.521 28.1212 197.627 28.4125C197.827 29.0347 198.228 29.4981 198.801 29.7629C199.175 29.935 199.602 30.0409 200.095 30.0409C207.085 30.0409 214.075 30.0409 221.079 30.0409C222.666 30.0409 223.56 29.2333 223.693 27.671C223.76 26.9561 223.72 26.2279 223.733 25.513C223.733 25.2614 223.68 24.9436 223.92 24.7848C223.933 24.7848 223.947 24.7583 223.96 24.7451C224.253 24.5994 224.48 24.8377 224.707 25.0098C227.828 27.3533 230.937 29.7099 234.098 32.0004C234.805 32.5035 234.845 32.7154 234.125 33.2449C231.524 35.1382 228.976 37.1109 226.361 39.0042C226.228 39.0969 226.094 39.2161 225.961 39.3352C225.347 39.9178 224.72 40.6592 224 40.3547C223.853 40.3017 223.773 40.1693 223.72 39.984C223.626 39.6397 223.666 39.1366 223.693 38.6467C223.693 38.5011 223.706 38.3555 223.706 38.2098C223.706 38.2098 223.706 38.1834 223.706 38.1701C223.706 38.0642 223.706 37.9583 223.706 37.8524C223.613 36.4622 223.12 35.6546 222.079 35.3368C221.732 35.2309 221.332 35.1779 220.852 35.1779C217.41 35.1779 213.982 35.1779 210.54 35.1779C208.393 35.1779 206.245 35.1779 204.097 35.1779C202.803 35.1779 201.523 35.1779 200.229 35.1779C200.002 35.1779 199.802 35.1912 199.602 35.2177C198.975 35.3103 198.481 35.5222 198.121 35.8664C197.654 36.3166 197.414 36.9918 197.427 37.8788C197.427 38.2363 197.481 38.5408 197.561 38.8189C197.734 39.4146 198.081 39.8516 198.601 40.1164C199.015 40.3282 199.548 40.4341 200.202 40.4341C205.098 40.4341 209.98 40.4341 214.876 40.4341C215.969 40.4341 217.05 40.4341 218.144 40.4341C218.264 40.4341 218.344 40.4473 218.451 40.4606C218.904 40.5003 219.171 40.6459 219.264 41.0167C219.264 41.0696 219.264 41.1491 219.264 41.2153C219.264 41.3344 219.291 41.4403 219.291 41.586C219.264 42.1023 219.264 42.6319 219.264 43.1482C219.264 43.9956 219.264 44.8297 219.291 45.677C219.291 45.9153 219.331 46.1404 219.371 46.3655C219.371 46.3787 219.371 46.4052 219.371 46.4185C219.371 46.4714 219.411 46.5244 219.424 46.5641C219.611 47.1996 219.985 47.7292 220.638 48.0734C220.705 48.0999 220.758 48.1264 220.825 48.1529C221.145 48.2853 221.465 48.3117 221.759 48.272C222.026 48.2323 222.279 48.1396 222.519 47.994C222.746 47.8748 222.973 47.7159 223.2 47.5571C228.722 43.4395 234.245 39.3485 239.768 35.2309C239.874 35.1515 239.954 35.0588 240.048 34.9793C241.702 33.523 241.622 31.4841 239.794 30.1071L239.888 30.0542Z" fill="#F9F5ED"/>
<path d="M10.4585 49.6758C10.4051 43.9827 10.4318 38.2896 10.4318 32.5966C10.4318 26.8241 10.4185 21.0515 10.4451 15.279C10.4451 14.7362 10.3251 14.4714 10.0449 14.3258C9.88486 14.2463 9.67143 14.1934 9.36461 14.2066C6.65665 14.2596 3.94869 14.2463 1.24073 14.2066C0.920579 14.2066 0.707144 14.2596 0.560407 14.3523C0.507048 14.392 0.467029 14.4317 0.42701 14.4847C0.320293 14.6303 0.280273 14.8421 0.280273 15.1466C0.293613 24.6527 0.280273 34.1589 0.280273 43.665C0.280273 45.7039 0.280273 47.7428 0.280273 49.7817C0.280273 49.9935 0.293613 50.1524 0.333632 50.2848C0.333632 50.2981 0.360312 50.3113 0.360312 50.3245C0.400331 50.4305 0.44035 50.5231 0.520388 50.5761C0.680465 50.7217 0.947259 50.7482 1.32077 50.7482C2.34793 50.735 3.37509 50.7217 4.40224 50.7217C5.01587 50.7217 5.6295 50.7217 6.24312 50.7217C7.27028 50.7217 8.29744 50.7217 9.32459 50.7482C9.55137 50.7482 9.73812 50.7482 9.88486 50.7085C10.1783 50.6423 10.3384 50.4967 10.4185 50.2054C10.4185 50.1921 10.4185 50.1657 10.4185 50.1392C10.4451 49.9935 10.4585 49.8479 10.4585 49.6361V49.6758Z" fill="#F9F5ED"/>
<path d="M197.521 17.3843C197.561 17.5962 197.614 17.808 197.694 17.9933C198.081 18.8936 198.948 19.463 200.149 19.463C204.351 19.4762 208.553 19.4894 212.755 19.4762C214.476 19.4762 215.663 18.4038 215.663 16.9342C215.663 16.5502 215.596 16.206 215.449 15.8882C215.049 14.9615 214.089 14.3789 212.768 14.3789C212.034 14.3789 211.301 14.3789 210.567 14.3789C209.246 14.3789 207.912 14.3789 206.592 14.3789C205.271 14.3789 203.844 14.3789 202.47 14.3789C201.709 14.3789 200.936 14.3789 200.175 14.3789C199.482 14.3789 198.881 14.604 198.428 14.9482C198.161 15.1468 197.948 15.3984 197.801 15.6896C197.614 16.0339 197.494 16.4311 197.494 16.8547C197.494 17.0401 197.507 17.2122 197.534 17.3711L197.521 17.3843Z" fill="#F9F5ED"/>
</svg>
