<svg width="253" height="61" viewBox="0 0 253 61" fill="none" xmlns="http://www.w3.org/2000/svg">
<path d="M36.7676 16.4431C32.1355 15.0517 27.6862 15.7928 23.5873 18.3939C22.8864 18.8325 22.3683 19.8911 21.6979 19.9516C20.9208 20.0272 20.4637 18.8779 19.7323 18.3939C16.2582 16.0952 12.4336 15.4298 8.38051 15.9894C4.17502 16.564 1.59992 19.0594 0.472356 23.0821C0.350458 23.5055 0.426644 24.0197 0 24.3222V44.9047C2.34654 44.693 4.70832 44.7837 7.0701 44.8442C8.31956 44.8744 8.59383 44.4661 8.5786 43.2865C8.50241 39.3091 8.54812 35.3469 8.54812 31.3695C8.54812 29.9026 8.50241 28.4357 8.62431 26.9838C8.82239 24.8364 10.3004 23.3543 12.2965 23.1123C14.3992 22.8552 16.2582 23.9139 17.0505 25.8496C17.2639 26.394 17.401 26.9536 17.5686 27.5132C17.5686 32.9423 17.5686 38.3564 17.5686 43.7856C17.5686 44.1183 17.3858 44.572 17.9495 44.693C20.0523 44.9198 22.155 44.693 24.2425 44.8139C25.4463 44.8896 25.7967 44.5266 25.7815 43.3016C25.7206 38.2505 25.7358 33.1994 25.7663 28.1483C25.7663 25.7589 26.9548 23.9592 28.8747 23.3089C31.6631 22.3562 33.842 23.7475 34.7563 27.0746C34.7715 32.5189 34.7715 37.9632 34.8172 43.4075C34.8172 43.8309 34.482 44.4359 35.1829 44.693L35.2896 44.7383L35.3962 44.693C37.819 44.7081 40.2569 44.7383 42.6797 44.7535C42.9235 44.7535 43.1977 44.7686 43.2282 44.4056C43.2434 43.2411 43.2739 42.0615 43.2739 40.8971C43.2739 35.9669 43.3349 31.0217 43.2282 26.0916C43.1215 21.2522 40.7598 17.6378 36.7676 16.4431Z" fill="#F9F5ED"/>
<path d="M244.727 27.1806C244.163 26.9991 243.6 26.8176 243.081 26.5757C241.573 25.8649 240.948 24.8516 241.253 23.672C241.543 22.5378 242.487 21.9783 244.163 22.0236C246.266 22.0841 248.216 22.7344 250.091 23.6267C250.761 23.9443 251.051 23.914 251.172 23.1276C251.401 21.6002 251.645 20.0728 251.934 18.5605C252.056 17.9102 251.843 17.5926 251.233 17.3506C248.293 16.2013 245.276 15.5661 242.106 15.8534C236.758 16.3374 233.223 20.1786 233.573 25.139C233.848 29.0407 236.149 31.4302 239.607 32.9122C240.963 33.4869 242.426 33.7894 243.706 34.5304C244.636 35.0748 245.062 35.8612 244.94 36.935C244.803 38.0087 244.163 38.6741 243.158 38.9766C242.045 39.3093 240.903 39.2186 239.775 39.022C237.764 38.659 235.95 37.797 234 36.8291C233.711 38.5985 233.497 40.2923 233.132 41.9558C232.949 42.8179 233.162 43.2413 233.954 43.6043C236.423 44.7385 238.998 45.4946 241.725 45.6156C246.677 45.8425 251.34 43.7404 252.696 39.022C252.742 38.8859 252.894 38.78 253.001 38.6741V34.6514C251.889 30.3867 248.628 28.4812 244.758 27.2108L244.727 27.1806Z" fill="#F9F5ED"/>
<path d="M132.229 15.8223C129.836 16.397 127.84 17.622 125.997 19.6938C125.997 18.6655 125.951 17.9698 125.997 17.2742C126.042 16.5634 125.89 16.2155 125.052 16.2458C123.071 16.3063 121.09 16.3063 119.109 16.2458C118.287 16.2155 118.149 16.5482 118.149 17.2742C118.165 31.2932 118.165 45.2972 118.149 59.3163C118.149 60.0422 118.378 60.2388 119.079 60.2237C121.182 60.1934 123.3 60.1481 125.402 60.2237C126.454 60.269 126.728 59.9666 126.728 58.9231C126.682 53.3276 126.698 47.7169 126.698 41.834C130.309 45.1006 134.316 45.8719 138.659 44.7074C148.106 42.1667 152.296 30.5825 146.902 22.0984C143.672 17.0171 137.775 14.4764 132.229 15.8072V15.8223ZM133.646 37.9928C129.395 38.0079 126.042 34.7262 125.997 30.4766C125.951 26.1211 129.242 22.7487 133.524 22.7336C137.76 22.7033 141.051 26.0002 141.097 30.3102C141.142 34.5901 137.866 37.9776 133.646 37.9928Z" fill="#F9F5ED"/>
<path d="M77.9841 16.6545C77.9841 16.0042 77.786 15.7774 77.1155 15.7925C75.5613 15.8379 73.9919 15.7925 72.4377 15.8076C71.5234 15.8076 70.3502 15.5354 69.7407 15.974C69.055 16.4579 69.5883 17.6829 69.4817 18.5751C69.4817 18.6961 69.4359 18.802 69.3902 19.044C64.9105 15.2783 60.0802 14.7944 55.0367 17.2141C46.2143 21.4485 44.1725 33.8343 50.9379 41.0783C56.0881 46.5982 65.0324 47.0368 69.7407 41.8344C69.8016 41.7588 69.954 41.7739 70.1216 41.7286C70.1216 42.4998 70.1521 43.2106 70.1216 43.9214C70.0911 44.5566 70.3197 44.8137 70.9901 44.8137C73.0472 44.7834 75.1195 44.7834 77.1917 44.8137C77.786 44.8137 77.9841 44.6019 77.9841 44.0121C77.9841 34.8929 77.9688 25.7737 77.9841 16.6696V16.6545ZM62.7011 38.3108C58.3737 38.3108 55.1129 35.0442 55.0977 30.6434C55.0977 26.3635 58.2975 23.0516 62.4725 23.0364C66.8761 23.0364 70.1216 26.2274 70.1369 30.6131C70.1521 34.9232 66.8913 38.3108 62.7011 38.3259V38.3108Z" fill="#F9F5ED"/>
<path d="M112.939 1.93977C112.939 1.48608 112.939 1.01726 112.939 0.563573C112.939 0.125004 112.756 -0.0564734 112.314 0.0645112H105.244C104.68 -0.101843 104.36 0.0342651 104.391 0.69968C104.421 1.19874 104.391 1.6978 104.391 2.19686C104.391 7.3992 104.391 12.6015 104.375 17.8039C104.375 18.1517 104.787 18.9532 103.781 18.7415C103.674 18.4995 103.476 18.3483 103.217 18.2878C103.095 18.1971 102.974 18.1063 102.852 18.0005C102.699 17.7736 102.486 17.6073 102.196 17.577C102.181 17.5165 102.135 17.5014 102.075 17.5014C101.77 17.1536 101.374 16.9721 100.932 16.8814C98.2652 15.611 95.492 15.5052 92.6884 16.216C84.8107 18.2424 80.2243 26.4391 82.3575 34.6056C84.2317 41.7588 90.7228 46.326 97.6557 45.3732C99.3318 45.2371 100.901 44.7532 102.257 43.7248C102.699 43.6341 103.034 43.3619 103.309 43.0292L103.263 42.9838L103.324 43.014C103.324 42.9384 103.324 42.8779 103.339 42.8326C103.324 42.8779 103.309 42.9384 103.324 43.014C103.461 42.8931 103.598 42.7721 103.735 42.6511C104.055 42.4696 104.314 42.2428 104.497 41.9252C104.573 41.8344 104.65 41.7437 104.741 41.6681C104.878 41.6681 105.015 41.6378 105.152 41.6227C105.122 42.2428 105.122 42.8779 105.046 43.4829C104.924 44.4961 105.259 44.8893 106.356 44.8439C108.154 44.7532 109.983 44.7683 111.781 44.8439C112.725 44.8893 112.969 44.6171 112.969 43.6643C112.939 29.7662 112.939 15.853 112.939 1.9549V1.93977ZM97.5186 38.2956C93.1912 38.2503 89.9609 34.9232 90.0218 30.5224C90.0676 26.1367 93.3436 22.976 97.7472 23.0213C101.876 23.0667 105.198 26.5148 105.107 30.6887C105.015 35.0139 101.709 38.3259 97.5186 38.2956ZM104.939 0.457711C104.939 0.457711 104.939 0.457711 104.954 0.457711C104.954 0.457711 104.954 0.457711 104.939 0.457711Z" fill="#F9F5ED"/>
<path d="M182.892 15.853C182.724 15.853 182.541 15.853 182.374 15.853C180.667 15.8378 178.945 15.8076 177.239 15.7925C174.877 15.7925 174.877 15.7925 174.725 18.0761C174.694 18.4844 174.786 18.9986 174.085 18.7264C174.024 18.6659 173.947 18.6054 173.887 18.5449C173.78 18.4541 173.673 18.3785 173.567 18.2878C170.077 15.2934 164.196 14.9607 159.701 17.5165C152.067 21.8568 149.796 32.2161 154.886 39.4601C160.112 46.9006 170.123 47.2636 174.938 41.91C175.06 41.7739 175.288 41.7134 175.471 41.6227C175.456 42.3335 175.471 43.0443 175.395 43.7399C175.319 44.5566 175.593 44.8439 176.446 44.8137C178.336 44.7532 180.24 44.7532 182.13 44.8137C182.983 44.8439 183.288 44.6322 183.288 43.7248C183.257 34.7871 183.273 25.8342 183.257 16.8813C183.257 16.5335 183.562 16.0193 182.922 15.853H182.892ZM167.883 38.3107C163.556 38.3107 160.341 35.0139 160.341 30.598C160.341 26.2123 163.571 23.0364 168.005 23.0364C172.149 23.0364 175.38 26.3938 175.365 30.6585C175.349 34.9837 172.089 38.3107 167.868 38.3107H167.883Z" fill="#F9F5ED"/>
<path d="M230.463 30.7799C230.57 29.6456 230.57 28.5114 230.463 27.3772C230.494 23.7476 230.509 20.1181 230.57 16.4734C230.57 15.7929 230.204 15.7627 229.686 15.7778C227.446 15.7778 225.222 15.8232 222.982 15.7778C222.159 15.7627 222.022 16.0954 222.022 16.8062C222.052 19.6039 222.083 22.4017 222.022 25.2146C221.961 28.3451 222.266 31.4907 221.778 34.606L221.565 35.1202C221.443 35.347 221.321 35.5739 221.199 35.7856C221.199 35.7856 221.214 35.7856 221.23 35.7856C221.138 35.8915 221.062 35.9822 220.97 36.0881C219.508 37.5248 217.771 37.8726 215.866 37.1467C213.946 36.4057 213.276 34.7724 213.017 32.9122C212.956 32.5039 212.986 32.0805 212.986 31.657C212.986 26.8176 212.94 21.9631 213.017 17.1237C213.032 15.9593 212.681 15.7324 211.6 15.7778C209.756 15.8685 207.897 15.7778 206.053 15.808C205.672 15.808 205.215 15.5661 204.926 16.0349C204.895 17.4111 204.865 18.7873 204.849 20.1635C204.788 24.6399 204.971 29.1163 204.758 33.5776C204.667 33.8499 204.575 34.1221 204.468 34.3943C203.615 36.5871 201.939 37.6609 199.669 37.434C197.596 37.2223 196.225 35.8461 195.875 33.5474C195.798 33.0483 195.814 32.5493 195.814 32.0502C195.814 26.984 195.814 21.9329 195.814 16.8666C195.814 16.1105 195.692 15.7324 194.793 15.7627C192.644 15.8232 190.496 15.8232 188.347 15.7627C187.433 15.7324 187.235 16.05 187.235 16.912C187.281 20.0425 187.235 23.1881 187.266 26.3186C187.311 29.5398 187.007 32.761 187.464 35.9671C188.027 39.8991 189.886 43.0901 193.909 44.1335C199.227 45.5249 204.286 44.8292 208.445 40.8216C208.781 40.504 208.933 40.3679 209.314 40.7762C212.346 44.0277 216.308 44.799 220.498 44.7385C223.896 44.6931 226.852 43.574 228.696 40.4586C229.199 39.9445 229.473 39.3093 229.641 38.6136C229.671 38.4926 229.686 38.3717 229.717 38.2507C230.037 35.6949 230.159 33.124 230.204 30.553C230.159 33.124 230.037 35.6798 229.717 38.2507C230.326 37.1164 230.463 35.8764 230.448 34.6211C230.555 34.5153 230.57 34.3943 230.448 34.2733C230.448 34.1523 230.448 34.0313 230.448 33.8952C230.6 32.8517 230.6 31.7931 230.448 30.7496L230.463 30.7799ZM230.204 30.3262C230.204 29.4793 230.22 28.6324 230.204 27.7855C230.204 28.6324 230.204 29.4793 230.204 30.3262ZM230.204 27.7855C230.204 26.0312 230.174 24.277 230.159 22.5378C230.174 24.2921 230.204 26.0464 230.204 27.7855Z" fill="#F9F5ED"/>
</svg>
