<svg width="186" height="67" viewBox="0 0 186 67" fill="none" xmlns="http://www.w3.org/2000/svg">
<path d="M85.9528 18.3315V21.6372C85.9528 23.5646 85.9319 25.492 85.9632 27.4195C85.9632 27.979 85.7649 28.3728 85.4203 28.7873C78.0178 37.6265 70.6362 46.4761 63.2441 55.3257C63.1188 55.4811 62.9935 55.6469 62.8056 55.8956H77.454V50.7144H87.1639V66.1441H47.75C47.75 65.8955 47.75 65.6467 47.75 65.398C47.75 62.9836 47.7604 60.5691 47.75 58.1547C47.75 57.6365 47.8753 57.2428 48.2198 56.8386C55.5388 48.2274 62.8369 39.6161 70.1455 30.9945C70.7928 30.2277 71.4401 29.4712 72.1501 28.6215H58.5875V34.124H48.888V18.3419H85.9737L85.9528 18.3315Z" fill="#F9F5ED"/>
<path d="M23.9662 66.1861C11.3747 66.5695 -0.266804 55.72 0.00465567 41.6477C0.255234 28.8811 10.8735 18.2077 24.3734 18.2491C37.32 18.2906 48.0949 29.0987 48.0427 42.1554C47.9905 56.435 36.1611 66.5488 23.9662 66.1965V66.1861ZM10.2993 42.1451C10.4976 50.176 16.6159 56.1863 24.4256 56.0101C31.7968 55.8443 37.936 49.4403 37.7272 42.1244C37.5079 34.3939 31.3479 28.3215 23.8723 28.4977C16.6264 28.6635 10.3723 34.4146 10.2993 42.1451Z" fill="#F9F5ED"/>
<path d="M137.823 42.1647C137.823 29.0457 148.671 18.2791 161.9 18.2584C175.483 18.2273 185.517 29.4084 185.872 41.4289C186.268 54.9209 175.034 67.0036 160.417 66.2264C148.901 65.615 137.959 55.9986 137.823 42.1543V42.1647ZM161.994 28.5069C154.414 28.5069 148.18 34.6311 148.17 42.0921C148.16 49.8226 154.247 56.0297 161.837 56.0297C169.448 56.0297 175.556 49.864 175.556 42.2061C175.556 34.7451 169.365 28.4965 161.994 28.5069Z" fill="#F9F5ED"/>
<path d="M118.979 28.5487H112.777V18.2898H118.937V0C119.94 1.03625 120.796 1.92743 121.652 2.82896C124.304 5.60612 126.966 8.38327 129.597 11.1811C129.817 11.4195 129.973 11.8236 129.984 12.1449C130.025 13.9065 130.005 15.6785 130.005 17.4401C130.005 17.6888 130.005 17.9375 130.005 18.2587H138.18V28.528H130.046V55.9161H138.744V66.1335H118.979V28.5487Z" fill="#F9F5ED"/>
<path d="M97.3954 55.9476V28.5698H91.204V18.3213H108.41V55.9268H114.644V66.1443H91.0996V55.9476H97.385H97.3954Z" fill="#F9F5ED"/>
<path d="M94.9941 12.9326C99.2957 8.66327 103.566 4.42501 107.857 0.166016V12.9326H94.9941Z" fill="#F9F5ED"/>
</svg>
