<svg width="293" height="61" viewBox="0 0 293 61" fill="none" xmlns="http://www.w3.org/2000/svg">
<path d="M63.9786 15.8599C61.5249 12.0393 58.0281 9.35611 54.0904 7.19789C50.2997 5.12717 46.2886 3.59601 42.1306 2.48773C37.4583 1.23364 32.7273 0.271188 27.8787 0.0378672C24.4406 -0.122541 21.0319 0.22744 17.6967 1.07323C12.231 2.47315 7.54404 5.12717 4.13534 9.69151C1.78451 12.8705 0.432789 16.4724 0.0801648 20.3805C-0.0520693 21.97 -0.022684 23.6178 0.183013 25.2511C0.447482 27.2635 0.858877 29.2321 1.49066 31.1424C2.6073 34.4527 3.94434 37.6754 5.67807 40.7523C8.49907 45.7541 11.9812 50.2018 16.3743 53.9495C18.5782 55.8161 20.9291 57.4056 23.5884 58.543C26.6592 59.8554 29.8181 60.7887 33.1534 60.6283C35.8274 60.7158 38.384 60.2783 40.8523 59.4471C45.9066 57.7701 50.1969 54.8536 53.9729 51.1788C58.2338 47.0374 61.5984 42.2543 63.9639 36.815C65.7858 32.6298 67.0935 28.3134 66.6674 23.647C66.4176 20.818 65.5213 18.2369 63.9933 15.8599H63.9786ZM59.6737 28.9405C57.0143 38.6816 51.5339 46.4395 42.6448 51.5142C35.3279 55.6848 28.246 54.6932 21.649 49.706C16.918 46.1333 13.5093 41.496 10.8058 36.3046C8.91046 32.659 7.48527 28.853 6.86818 24.7699C5.88377 18.2952 9.028 12.1705 14.9785 9.12279C18.6223 7.25622 22.5159 6.58543 27.9375 6.58543C35.8274 7.22706 44.7165 9.16654 52.7387 14.0371C55.1189 15.4808 57.1759 17.3182 58.6452 19.7097C60.4377 22.6262 60.5552 25.7906 59.6883 28.9405H59.6737Z" fill="#F9F5ED"/>
<path d="M235.252 23.6628C232.769 23.6482 230.433 24.2315 228.288 25.8648V24.8877C228.288 21.0671 228.288 17.2319 228.302 13.4113C228.302 12.8426 228.214 12.5946 227.553 12.6092C225.79 12.6676 224.012 12.653 222.264 12.6092C221.705 12.5946 221.573 12.7696 221.573 13.2946C221.588 24.9461 221.588 36.5975 221.573 48.249C221.573 48.8614 221.779 48.9781 222.323 48.9635C223.762 48.9343 225.202 48.9635 226.657 48.9635C227.935 48.9635 227.935 48.9635 228.067 47.6802C228.097 47.3594 228.17 47.0969 228.508 47.3886C230.124 48.7739 232.005 49.3426 234.091 49.4301C238.749 49.6489 242.525 48.001 245.228 44.2096C247.653 40.7973 248.152 36.9766 247.138 33.0102C245.713 27.4834 241.114 23.6774 235.252 23.6482V23.6628ZM240.306 39.4265C239.307 41.9055 237.015 43.3201 233.577 43.3055C232.034 43.2617 230.168 42.4305 228.699 40.7535C228.42 40.4327 228.288 40.0827 228.288 39.6453C228.317 37.6037 228.288 35.5621 228.288 33.506C228.288 33.2144 228.258 32.9373 228.479 32.6748C230.932 29.5979 236.119 28.5188 239.072 31.829C241.07 34.0601 241.408 36.6704 240.306 39.4119V39.4265Z" fill="#F9F5ED"/>
<path d="M107.984 15.7873C105.56 13.6437 102.577 13.2354 99.5213 13.177C95.2016 13.0896 90.8673 13.177 86.5329 13.1333C85.8277 13.1333 85.6661 13.3229 85.6661 14.0083C85.6954 19.6954 85.6808 25.3972 85.6808 31.0844C85.6808 36.7716 85.6954 42.415 85.6514 48.0876C85.6514 48.8313 85.8571 49.0063 86.577 48.9772C88.3401 48.9188 90.1179 48.9188 91.8664 48.9772C92.5569 49.0063 92.6892 48.7584 92.6892 48.1314C92.6598 44.1212 92.6745 40.1256 92.6745 36.13C92.6745 34.4238 92.6745 34.4384 94.4376 34.4092C97.1851 34.3655 99.9473 34.6134 102.68 34.1467C106.339 33.5197 109.101 31.7115 110.541 28.2408C111.334 26.3597 111.599 24.3764 111.305 22.3203C110.937 19.7392 109.909 17.5372 107.94 15.7873H107.984ZM100.241 28.1679C97.9051 28.3137 95.5395 28.2116 93.174 28.2554C92.6745 28.2554 92.6892 27.9929 92.6892 27.6429C92.6892 26.3597 92.6892 25.0764 92.6892 23.7931C92.6892 22.5099 92.7039 21.2849 92.6892 20.0163C92.6745 19.5496 92.7773 19.3309 93.3063 19.3455C95.5983 19.4038 97.9051 19.2434 100.197 19.433C102.768 19.6371 104.458 21.3579 104.473 23.7786C104.502 26.1701 102.827 28.0075 100.241 28.1679Z" fill="#F9F5ED"/>
<path d="M269.324 26.0677C266.679 24.0261 263.697 23.3553 260.376 23.8074C256.071 24.3907 253.103 26.7676 251.355 30.5591C250.223 33.009 249.768 35.6338 250.179 38.4191C250.591 41.2627 251.59 43.7855 253.603 45.827C255.983 48.2331 258.966 49.3706 262.374 49.4872C266.503 49.6331 270.088 48.4081 273.085 45.5354C273.453 45.1708 273.526 44.9521 273.1 44.5729C272.071 43.6105 271.072 42.6189 270.103 41.6127C269.75 41.2481 269.515 41.146 269.148 41.5835C268.501 42.3418 267.649 42.823 266.767 43.2605C262.58 45.3312 257.922 43.3917 256.806 39.1336C256.644 38.492 256.688 38.2004 257.496 38.2149C260.112 38.2587 262.727 38.2295 265.342 38.2295C267.957 38.2295 270.646 38.2149 273.291 38.2441C273.849 38.2441 274.04 38.1129 274.084 37.5296C274.187 36.2463 274.128 34.9776 273.864 33.7089C273.232 30.6612 271.88 28.0217 269.339 26.0677H269.324ZM266.415 33.3735C264.975 33.3298 263.535 33.3735 262.095 33.3735C260.655 33.3735 259.157 33.3444 257.687 33.3735C257.085 33.3881 256.967 33.2131 257.129 32.659C257.731 30.6904 259.95 29.0863 262.169 29.0571C264.446 29.0425 266.371 30.4279 267.047 32.5132C267.267 33.184 267.135 33.3881 266.4 33.359L266.415 33.3735Z" fill="#F9F5ED"/>
<path d="M212.405 25.9808C209.833 24.0122 206.88 23.3559 203.618 23.808C199.446 24.3767 196.581 26.6516 194.729 30.2535C193.671 32.295 193.245 34.5407 193.304 36.874C193.348 38.9884 193.76 40.9862 194.715 42.8674C196.375 46.1193 199.005 48.1608 202.561 49.065C205.014 49.6774 207.483 49.692 209.936 49.065C212.375 48.4525 214.535 47.3296 216.283 45.4776C216.563 45.186 216.71 45.011 216.328 44.6464C215.255 43.6403 214.241 42.5903 213.198 41.5549C213.036 41.3945 212.816 41.1175 212.625 41.3945C212.375 41.7591 211.993 41.8758 211.685 42.1237C209.775 43.684 207.615 44.3694 205.146 43.9611C202.605 43.5382 200.386 41.3362 199.945 38.8572C199.828 38.2301 200.033 38.201 200.548 38.201C203.192 38.2301 205.852 38.201 208.496 38.201C211.141 38.201 213.8 38.1718 216.445 38.2301C217.062 38.2301 217.268 38.026 217.297 37.4573C217.341 36.4365 217.297 35.4303 217.15 34.4241C216.68 30.9826 215.182 28.0807 212.405 25.9808ZM209.642 33.3887C208.203 33.3304 206.763 33.3741 205.323 33.3741C203.795 33.3741 202.252 33.3741 200.724 33.3741C200.313 33.3741 200.151 33.3158 200.283 32.82C200.827 30.8368 203.031 29.116 205.205 29.0723C207.585 29.014 209.598 30.4139 210.26 32.5429C210.451 33.17 210.392 33.4179 209.628 33.3887H209.642Z" fill="#F9F5ED"/>
<path d="M149.446 43.5382C148.182 42.6049 146.904 41.7008 145.685 40.7092C145.053 40.1988 144.568 39.9363 144.083 40.8405C143.951 41.0884 143.686 41.2779 143.466 41.4675C141.248 43.3778 138.72 43.8445 136.002 42.8091C133.328 41.7883 132.021 39.6739 131.903 36.9323C131.785 34.2929 132.873 32.1638 135.194 30.7639C137.942 29.1015 141.615 29.714 143.833 32.2222C144.304 32.7471 144.539 32.7326 145.024 32.2805C146.228 31.1722 147.463 30.1077 148.726 29.0578C149.123 28.7224 149.035 28.489 148.755 28.1682C148.08 27.3954 147.316 26.7246 146.463 26.1413C143.51 24.1289 140.278 23.3706 136.707 23.8226C133.269 24.2601 130.39 25.6163 128.142 28.3141C126.099 30.7493 125.086 33.4909 125.144 36.9615C125.056 37.8219 125.203 38.9739 125.526 40.0967C126.349 42.8674 127.848 45.2298 130.243 46.9505C132.432 48.5255 134.871 49.3421 137.589 49.4733C142.467 49.7212 146.493 48.1609 149.593 44.3548C149.931 43.9465 149.784 43.7861 149.461 43.5528L149.446 43.5382Z" fill="#F9F5ED"/>
<path d="M292.229 24.9016C292.259 24.2453 292.024 24.1579 291.436 24.1579C289.232 24.187 287.028 24.1287 284.81 24.187C284.046 24.2016 283.899 23.9683 283.913 23.2683C283.972 21.4892 283.913 19.7102 283.943 17.9311C283.943 17.4061 283.811 17.2311 283.267 17.2457C281.533 17.2749 279.799 17.3041 278.066 17.2457C277.331 17.2166 277.214 17.4936 277.214 18.1353C277.243 21.8392 277.214 25.5432 277.214 29.2617C277.214 31.0116 277.169 32.7615 277.214 34.5115C277.302 37.253 276.89 40.0091 277.566 42.7214C278.066 44.7338 279.021 46.4108 280.754 47.6503C282.753 49.0794 285.03 49.4877 287.41 49.5023C288.718 49.5023 290.026 49.4294 291.319 49.1377C291.862 49.0211 291.906 48.7732 291.833 48.3649C291.554 46.8045 291.245 45.2588 290.966 43.6985C290.907 43.3922 290.834 43.3776 290.525 43.4214C289.658 43.538 288.777 43.6401 287.91 43.611C285.956 43.538 284.09 42.6923 283.987 40.1111C283.855 36.8447 283.987 33.5782 283.913 30.3117C283.913 29.743 284.251 29.8159 284.604 29.8159C286.896 29.8159 289.188 29.8013 291.495 29.8305C292.083 29.8305 292.229 29.6701 292.215 29.1013C292.171 27.7014 292.156 26.3015 292.215 24.9016H292.229Z" fill="#F9F5ED"/>
<path d="M189.073 13.4107C189.073 12.8274 188.956 12.6087 188.309 12.6232C186.546 12.667 184.783 12.667 183.02 12.6232C182.403 12.6087 182.3 12.8274 182.3 13.3669C182.3 25.0038 182.3 36.6553 182.3 48.2921C182.3 48.8171 182.417 48.9921 182.976 48.9775C184.739 48.9483 186.502 48.9192 188.265 48.9775C188.97 49.0067 189.058 48.7588 189.058 48.1463C189.029 42.3716 189.058 36.5969 189.058 30.8222C189.058 25.0476 189.058 19.2145 189.058 13.4107H189.073Z" fill="#F9F5ED"/>
<path d="M120.473 24.1582C118.709 24.2019 116.946 24.2019 115.169 24.1582C114.522 24.1436 114.331 24.2894 114.331 24.9602C114.36 28.81 114.346 32.6744 114.346 36.5242C114.346 40.4031 114.346 44.2967 114.346 48.1756C114.346 48.7589 114.449 48.9923 115.11 48.9777C116.873 48.9339 118.636 48.9339 120.414 48.9777C121.002 48.9777 121.148 48.8027 121.148 48.234C121.134 40.4323 121.134 32.6452 121.148 24.8436C121.148 24.3186 121.031 24.1436 120.473 24.1582Z" fill="#F9F5ED"/>
<path d="M118.049 11.1791C114.831 10.9896 113.362 13.2353 113.288 15.306C113.2 17.508 115.022 19.7682 117.549 19.6078C120.194 19.8266 122.089 17.6246 122.133 15.5393C122.192 13.0603 120.208 11.2812 118.049 11.1646V11.1791Z" fill="#F9F5ED"/>
<path d="M179.2 48.6858C174.704 44.2381 170.208 39.805 165.697 35.3574C169.796 31.6242 173.807 27.9494 177.951 24.1726C175.365 24.1726 172.985 24.2309 170.604 24.158C169.106 24.1142 167.739 24.1726 166.902 25.6308C166.872 25.6746 166.828 25.7183 166.784 25.7621C164.962 27.2495 163.258 28.8681 161.598 30.5306C161.098 31.0264 160.584 31.493 159.937 31.8721V31.2743C159.937 25.3392 159.937 19.4187 159.952 13.4836C159.952 12.7836 159.761 12.6086 159.071 12.6378C157.337 12.6815 155.603 12.6815 153.855 12.6378C153.296 12.6378 153.164 12.7982 153.164 13.3232C153.193 14.9564 153.164 16.5896 153.164 18.2229C153.164 28.1828 153.164 38.1426 153.149 48.1025C153.149 48.8462 153.34 49.0212 154.075 49.0066C155.779 48.9483 157.484 48.9629 159.203 49.0066C159.776 49.0066 159.937 48.8754 159.937 48.2921C159.908 45.6964 159.937 43.1007 159.937 40.4904V38.6239C160.011 38.5947 160.084 38.551 160.158 38.5218C161.568 39.9655 163.052 41.3362 164.36 42.8528C166.079 44.8506 168.048 46.6005 169.87 48.4962C170.09 48.7296 170.34 49.0066 170.751 48.992C173.602 48.9629 176.452 48.9483 179.317 48.9337C179.449 48.7879 179.346 48.7296 179.214 48.7004L179.2 48.6858Z" fill="#F9F5ED"/>
<path d="M26.8956 33.4322C24.5301 33.4176 22.6641 35.2113 22.6494 37.5299C22.6494 39.834 24.5154 41.7005 26.8368 41.7005C29.1583 41.7005 31.0683 39.8048 31.0389 37.5299C31.0095 35.255 29.173 33.4468 26.8809 33.4322H26.8956Z" fill="#F9F5ED"/>
<path d="M27.279 26.1561C27.279 23.8083 25.4571 22.0146 23.0769 22.0438C20.7702 22.0584 18.9483 23.852 18.9336 26.1415C18.9336 28.4747 20.7555 30.2975 23.1063 30.2975C25.4718 30.2975 27.279 28.5185 27.279 26.1561Z" fill="#F9F5ED"/>
<path d="M42.9238 22.0435C40.5877 22.0435 38.7217 23.8809 38.7364 26.1995C38.7364 28.4744 40.5877 30.2972 42.8797 30.3118C45.2159 30.3263 47.0965 28.5035 47.1259 26.1995C47.1406 23.91 45.2453 22.0435 42.9238 22.0435Z" fill="#F9F5ED"/>
<path d="M39.1776 33.4321C36.8121 33.4321 35.0049 35.2258 35.0049 37.5736C35.0049 39.8484 36.8562 41.6858 39.1335 41.7004C41.4844 41.715 43.3356 39.9068 43.3356 37.5736C43.3356 35.2258 41.5431 33.4321 39.1629 33.4321H39.1776Z" fill="#F9F5ED"/>
<path d="M37.1628 18.879C37.1628 16.5457 35.385 14.7375 33.0782 14.7083C30.7421 14.6792 28.832 16.5312 28.832 18.8352C28.832 21.1684 30.6686 22.9766 33.0488 22.9766C35.429 22.9766 37.1628 21.2122 37.1628 18.879Z" fill="#F9F5ED"/>
</svg>
