<svg width="331" height="55" viewBox="0 0 331 55" fill="none" xmlns="http://www.w3.org/2000/svg">
<path d="M28.5302 55C12.7959 55 0 42.6635 0 27.5057C0 12.3479 12.7959 0 28.5302 0C44.2645 0 57.0604 12.3364 57.0604 27.5057C57.0604 42.675 44.2645 55.0114 28.5302 55.0114V55ZM28.5302 3.09553C14.5731 3.09553 3.21083 14.0498 3.21083 27.5057C3.21083 40.9616 14.5613 51.9045 28.5183 51.9045C42.4754 51.9045 53.8259 40.9616 53.8259 27.5057C53.8259 14.0498 42.4872 3.09553 28.5302 3.09553Z" fill="#F9F5ED"/>
<path d="M44.6556 27.6886C44.2054 27.2545 43.6604 26.9347 43.0562 26.7634C43.6367 26.0894 43.9566 25.2556 43.9566 24.3646C43.9566 23.3708 43.5538 22.4342 42.8192 21.726C42.5941 21.509 32.8786 12.2338 32.8786 12.2338C30.7104 10.1434 27.1916 10.1434 25.0234 12.2338L13.1871 23.645C12.8198 24.0219 12.3696 24.5131 12.0616 25.0842C11.8601 25.4498 11.7061 25.8267 11.5758 26.2379C11.3388 26.889 11.2677 27.5972 11.2677 28.2826C11.2559 29.9846 11.9312 31.6865 13.2701 32.9773L22.2865 41.6813C23.1869 42.5495 24.2295 43.2234 25.4025 43.6803C26.5281 44.1258 27.7247 44.3428 28.9451 44.3428C30.1654 44.3428 31.3621 44.1144 32.4877 43.6803C33.6606 43.2234 34.7032 42.5495 35.6037 41.6813L44.6319 32.9773C46.1367 31.5266 46.1367 29.1507 44.6319 27.7L44.6556 27.6886ZM43.4353 31.8007L34.407 40.5048C32.9023 41.9555 30.9356 42.6751 28.9569 42.6751C26.9783 42.6751 25.0115 41.9555 23.5068 40.5048L15.616 32.8973C15.616 32.8973 15.5449 32.8174 15.5093 32.7831L14.4904 31.8007C12.5592 29.9389 12.5592 26.889 14.5023 25.0157C15.4738 24.079 16.7534 23.6107 18.033 23.6107C19.3007 23.6107 20.5685 24.079 21.5282 25.0043L23.7082 27.106C23.7082 27.106 23.7201 27.1175 23.7319 27.1289L23.9215 27.3231L28.9451 32.1663L38.5539 22.9025C38.9686 22.5027 39.5254 22.2971 40.0704 22.2971C40.6154 22.2971 41.1723 22.5027 41.587 22.9025C42.4282 23.7135 42.4282 25.0271 41.587 25.8381L30.6512 36.3812C30.1891 36.8267 29.5849 37.0666 28.9332 37.0666C28.2816 37.0666 27.6773 36.8267 27.2153 36.3812L20.8528 30.2473C20.8528 30.2473 20.841 30.2358 20.8291 30.2244L20.6396 30.0302L18.4595 27.9285C18.3055 27.78 18.1278 27.7457 17.9974 27.7457C17.8908 27.7457 17.6894 27.7686 17.5117 27.9399C17.334 28.1112 17.3103 28.3054 17.3103 28.4082C17.3103 28.5225 17.3458 28.7052 17.4998 28.8537L19.751 31.024C19.751 31.024 19.8221 31.104 19.8694 31.1382L26.5281 37.5578C27.1916 38.1974 28.0683 38.5173 28.9332 38.5173C29.7981 38.5173 30.6749 38.1974 31.3384 37.5578L40.3666 28.8537C40.7813 28.4539 41.3382 28.2483 41.8832 28.2483C41.895 28.2483 41.9069 28.2483 41.9187 28.2483C41.9306 28.2483 41.9424 28.2483 41.9543 28.2483C42.0135 28.2483 42.0609 28.2483 42.1201 28.2483C42.1438 28.2483 42.1675 28.2483 42.1912 28.2483C42.2386 28.2483 42.286 28.2597 42.3453 28.2712C42.369 28.2712 42.3927 28.2712 42.4164 28.2826C42.4637 28.294 42.5111 28.3054 42.5585 28.3168C42.5822 28.3168 42.6059 28.3283 42.6296 28.3397C42.677 28.3511 42.7244 28.374 42.7599 28.3968C42.7718 28.3968 42.7836 28.3968 42.8073 28.4196C43.0206 28.5225 43.222 28.6481 43.3997 28.8194C44.241 29.6304 44.241 30.944 43.3997 31.7551L43.4353 31.8007Z" fill="#F9F5ED"/>
<path d="M77.4746 23.6335V34.0509H74.4889V23.6335H70.3657V20.9834H81.5859V23.6335H77.4627H77.4746Z" fill="#F9F5ED"/>
<path d="M94.6541 34.0507V28.8077H89.1566V34.0507H86.1709V20.9946H89.1566V26.1691H94.6541V20.9946H97.6398V34.0507H94.6541Z" fill="#F9F5ED"/>
<path d="M103.517 34.0507V20.9946H113.718V23.5533H106.455V26.2034H112.841V28.762H106.455V31.5035H113.813V34.0621H103.517V34.0507Z" fill="#F9F5ED"/>
<path d="M127.331 34.051V21.0063H130.317V31.4581H137.07V34.051H127.331Z" fill="#F9F5ED"/>
<path d="M152.296 34.051L151.052 31.1268H145.317L144.073 34.051H141.04L146.846 20.8921H149.594L155.4 34.051H152.284H152.296ZM148.196 24.3531L146.395 28.5909H149.997L148.196 24.3531Z" fill="#F9F5ED"/>
<path d="M172.389 27.5171C172.389 28.4424 172.212 29.2991 171.868 30.0872C171.524 30.8868 171.027 31.5722 170.387 32.1547C169.747 32.7373 168.989 33.1942 168.112 33.5369C167.235 33.8681 166.264 34.0395 165.186 34.0395H159.901V20.9834H165.186C166.252 20.9834 167.235 21.1433 168.112 21.4746C168.989 21.8058 169.747 22.2627 170.387 22.8453C171.027 23.4278 171.524 24.1132 171.868 24.9128C172.212 25.7009 172.389 26.5576 172.389 27.4829V27.5171ZM169.273 27.5171C169.273 26.9346 169.178 26.3977 168.977 25.918C168.787 25.4382 168.503 25.027 168.148 24.6729C167.792 24.3188 167.354 24.0561 166.856 23.8619C166.359 23.6677 165.802 23.5763 165.197 23.5763H162.899V31.4465H165.197C165.802 31.4465 166.359 31.3552 166.856 31.161C167.354 30.9782 167.792 30.7041 168.148 30.3614C168.503 30.0187 168.787 29.5961 168.977 29.1163C169.167 28.6366 169.273 28.1111 169.273 27.54V27.5057V27.5171Z" fill="#F9F5ED"/>
<path d="M195.979 31.9375C195.636 32.303 195.268 32.6228 194.901 32.9084C194.522 33.1939 194.119 33.4452 193.669 33.6508C193.219 33.8565 192.733 34.0164 192.211 34.1192C191.678 34.222 191.086 34.2791 190.434 34.2791C189.439 34.2791 188.515 34.1078 187.662 33.7537C186.809 33.3995 186.074 32.9312 185.458 32.3258C184.842 31.7204 184.356 31.0122 184.013 30.1898C183.669 29.3674 183.491 28.4878 183.491 27.5626V27.5283C183.491 26.5917 183.669 25.7235 184.013 24.9011C184.356 24.0901 184.842 23.3705 185.458 22.7537C186.074 22.1368 186.821 21.6571 187.685 21.303C188.55 20.9489 189.51 20.7661 190.553 20.7661C191.192 20.7661 191.773 20.8118 192.294 20.9146C192.816 21.0174 193.278 21.1545 193.704 21.3258C194.131 21.4972 194.522 21.7142 194.889 21.9655C195.245 22.2168 195.588 22.4909 195.896 22.7879L194 24.9011C193.467 24.4442 192.934 24.0787 192.389 23.816C191.844 23.5532 191.228 23.4276 190.541 23.4276C189.972 23.4276 189.451 23.5304 188.965 23.7474C188.479 23.9645 188.065 24.25 187.721 24.627C187.377 25.0039 187.105 25.4265 186.903 25.9291C186.714 26.4203 186.607 26.9458 186.607 27.5055V27.5397C186.607 28.0994 186.702 28.6249 186.903 29.1275C187.093 29.6301 187.366 30.0641 187.709 30.4297C188.053 30.8066 188.467 31.1036 188.953 31.3206C189.439 31.5377 189.972 31.6519 190.553 31.6519C191.323 31.6519 191.986 31.5148 192.519 31.2292C193.053 30.9437 193.586 30.5782 194.119 30.1213L196.015 31.9717L195.979 31.9375Z" fill="#F9F5ED"/>
<path d="M214.118 27.5171C214.118 28.4537 213.94 29.3219 213.573 30.1443C213.206 30.9553 212.708 31.6749 212.069 32.2917C211.429 32.9086 210.67 33.3883 209.782 33.7424C208.893 34.0965 207.934 34.2793 206.891 34.2793C205.848 34.2793 204.889 34.0965 204.012 33.7424C203.135 33.3883 202.377 32.9086 201.737 32.3032C201.097 31.6978 200.6 30.9896 200.244 30.1786C199.889 29.3676 199.711 28.488 199.711 27.5514V27.5171C199.711 26.5804 199.889 25.7123 200.256 24.8899C200.611 24.0789 201.121 23.3592 201.761 22.7424C202.4 22.1256 203.159 21.6458 204.047 21.2917C204.936 20.9376 205.896 20.7549 206.938 20.7549C207.981 20.7549 208.941 20.9376 209.817 21.2917C210.694 21.6458 211.452 22.1256 212.092 22.731C212.732 23.3364 213.23 24.0446 213.585 24.8556C213.94 25.6666 214.118 26.5462 214.118 27.4828V27.5171ZM211.002 27.5171C211.002 26.9574 210.907 26.4319 210.706 25.9293C210.505 25.4267 210.22 24.9927 209.853 24.6272C209.486 24.2502 209.047 23.9532 208.561 23.7362C208.064 23.5192 207.507 23.4049 206.903 23.4049C206.298 23.4049 205.765 23.5077 205.256 23.7248C204.758 23.9418 204.32 24.2274 203.964 24.6043C203.609 24.9813 203.336 25.4039 203.135 25.9065C202.934 26.3977 202.839 26.9231 202.839 27.4828V27.5171C202.839 28.0768 202.934 28.6022 203.135 29.1048C203.336 29.6074 203.621 30.0415 203.988 30.407C204.355 30.784 204.794 31.0809 205.291 31.298C205.789 31.515 206.346 31.6292 206.938 31.6292C207.531 31.6292 208.099 31.5264 208.597 31.3094C209.095 31.0924 209.521 30.8068 209.877 30.4299C210.232 30.0529 210.505 29.6303 210.706 29.1277C210.907 28.6365 211.002 28.1111 211.002 27.5514V27.5171Z" fill="#F9F5ED"/>
<path d="M219.284 34.051V21.0063H222.27V31.4581H229.023V34.051H219.284Z" fill="#F9F5ED"/>
<path d="M233.573 34.051V21.0063H236.559V31.4581H243.312V34.051H233.573Z" fill="#F9F5ED"/>
<path d="M247.862 34.0507V20.9946H258.064V23.5533H250.801V26.2034H257.187V28.762H250.801V31.5035H258.158V34.0621H247.862V34.0507Z" fill="#F9F5ED"/>
<path d="M275.136 31.9375C274.793 32.303 274.425 32.6228 274.058 32.9084C273.679 33.1939 273.276 33.4452 272.826 33.6508C272.376 33.8565 271.89 34.0164 271.369 34.1192C270.835 34.222 270.243 34.2791 269.591 34.2791C268.596 34.2791 267.672 34.1078 266.819 33.7537C265.966 33.3995 265.231 32.9312 264.615 32.3258C263.999 31.7204 263.513 31.0122 263.17 30.1898C262.826 29.3674 262.648 28.4878 262.648 27.5626V27.5283C262.648 26.5917 262.826 25.7235 263.17 24.9011C263.513 24.0901 263.999 23.3705 264.615 22.7537C265.231 22.1368 265.978 21.6571 266.843 21.303C267.708 20.9489 268.667 20.7661 269.71 20.7661C270.35 20.7661 270.93 20.8118 271.452 20.9146C271.973 21.0174 272.435 21.1545 272.862 21.3258C273.288 21.4972 273.679 21.7142 274.046 21.9655C274.402 22.2168 274.745 22.4909 275.053 22.7879L273.158 24.9011C272.625 24.4442 272.091 24.0787 271.546 23.816C271.001 23.5532 270.385 23.4276 269.698 23.4276C269.129 23.4276 268.608 23.5304 268.122 23.7474C267.636 23.9645 267.222 24.25 266.878 24.627C266.535 25.0039 266.262 25.4265 266.061 25.9291C265.871 26.4203 265.764 26.9458 265.764 27.5055V27.5397C265.764 28.0994 265.859 28.6249 266.061 29.1275C266.25 29.6301 266.523 30.0641 266.866 30.4297C267.21 30.8066 267.625 31.1036 268.11 31.3206C268.596 31.5377 269.129 31.6519 269.71 31.6519C270.48 31.6519 271.144 31.5148 271.677 31.2292C272.21 30.9437 272.743 30.5782 273.276 30.1213L275.172 31.9717L275.136 31.9375Z" fill="#F9F5ED"/>
<path d="M286.344 23.6335V34.0509H283.358V23.6335H279.235V20.9834H290.455V23.6335H286.332H286.344Z" fill="#F9F5ED"/>
<path d="M295.112 34.0507V20.9946H298.098V34.0507H295.112Z" fill="#F9F5ED"/>
<path d="M310.74 34.1423H308.11L302.636 20.9834H305.93L309.472 30.1786L313.015 20.9834H316.226L310.752 34.1423H310.74Z" fill="#F9F5ED"/>
<path d="M320.704 34.0507V20.9946H330.905V23.5533H323.642V26.2034H330.029V28.762H323.642V31.5035H331V34.0621H320.704V34.0507Z" fill="#F9F5ED"/>
</svg>
