<svg width="253" height="73" viewBox="0 0 253 73" fill="none" xmlns="http://www.w3.org/2000/svg">
<path d="M45.0828 21.4347C45.6846 21.3653 45.7406 21.0597 45.7686 20.5596H45.1528C43.0813 20.5596 40.9958 20.5596 38.9243 20.5596C38.1685 20.5596 38.1545 20.5596 38.0845 21.3514C38.2105 21.3514 38.3365 21.3653 38.4764 21.3931C39.7361 21.5459 40.184 22.3099 39.6941 23.4768C39.4982 23.9213 39.2462 24.352 38.9803 24.7548C35.6771 29.992 32.3739 35.2152 29.0708 40.4384C28.9868 40.5774 28.8888 40.7024 28.7348 40.9246C28.6929 40.6468 28.6789 40.494 28.6649 40.3412C28.4269 37.9102 28.175 35.4652 27.937 33.0342C27.6151 29.8391 27.2932 26.6302 26.9853 23.4351C26.9573 23.1851 27.0413 22.8795 27.1532 22.6572C27.8251 21.3514 28.5249 20.0595 29.1967 18.7537C30.5964 16.017 32.192 13.3915 33.2417 10.4882C33.9835 8.44609 34.5714 6.39013 34.4874 4.18137C34.4034 2.13931 33.3537 0.722363 31.5481 0.236157C31.2122 0.152808 30.8763 0.0833496 30.5404 0H29.0568C28.6789 0.0833496 28.287 0.152808 27.9091 0.250049C25.7116 0.819604 24.102 2.20876 22.8423 4.01467C20.225 7.80708 19.3292 12.0718 19.6231 16.5866C19.8611 20.2956 20.2949 24.0047 20.6309 27.7137C20.6589 27.9777 20.5749 28.3111 20.4349 28.5194C17.4816 32.9231 14.5004 37.3128 11.5331 41.7026C11.4491 41.8276 11.3512 41.9387 11.1972 42.1471C11.0153 40.3273 10.8473 38.6325 10.6793 36.9239C10.3994 34.0344 10.1055 31.145 9.82555 28.2416C9.67159 26.6441 9.50363 25.0604 9.37766 23.4629C9.30768 22.4905 9.72758 21.8654 10.6653 21.5736C11.1132 21.4347 11.6031 21.3792 12.065 21.3375C12.7088 21.2819 12.7368 21.2541 12.7228 20.5318H12.233C8.39791 20.5318 4.54887 20.5318 0.713822 20.5318C0.0419895 20.5318 0 20.5873 0 21.3236C0.181955 21.3236 0.349913 21.3375 0.531868 21.3514C2.26744 21.4208 3.14922 22.171 3.37316 23.8797C3.58311 25.4494 3.69508 27.033 3.84904 28.6028C4.12897 31.5061 4.39491 34.4234 4.67484 37.3267C4.95477 40.2995 5.24869 43.2723 5.52862 46.2451C5.66859 47.6621 5.80855 49.0651 5.94852 50.5237C6.45239 50.5237 6.92828 50.4959 7.40416 50.5237C7.88004 50.5654 8.13198 50.3709 8.39791 49.9958C12.4569 43.9808 16.5159 37.9796 20.5889 31.9785C20.6868 31.8256 20.7988 31.6867 20.9528 31.4784C20.9948 31.6451 21.0228 31.7006 21.0368 31.7701C21.3447 34.854 21.6386 37.9518 21.9465 41.0358C22.2405 44.0919 22.5484 47.1481 22.8423 50.2042C22.8703 50.4682 22.9683 50.5376 23.2202 50.5376C23.5981 50.5376 23.976 50.5098 24.3539 50.5376C24.7458 50.5654 24.9698 50.4265 25.1797 50.0931C27.6431 46.134 30.1345 42.1888 32.6119 38.2436C35.5651 33.5482 38.5044 28.839 41.4717 24.1436C42.3255 22.7822 43.3892 21.6153 45.1248 21.4069L45.0828 21.4347ZM25.8656 12.4747C25.7256 11.0994 25.6136 9.71023 25.5156 8.33496C25.4037 6.69575 25.4737 5.07043 25.9635 3.48679C26.3694 2.16709 27.1252 1.153 28.6089 0.875171C29.5886 0.69458 30.4284 1.04187 30.9743 1.90315C31.5901 2.88945 31.7301 4.01467 31.8001 5.13989C31.954 8.02934 31.1982 10.7521 30.0785 13.3637C29.1407 15.5725 28.021 17.6979 26.9713 19.8511C26.9153 19.9622 26.8313 20.0595 26.6914 20.2678C26.3974 17.5729 26.1175 15.0307 25.8656 12.4747Z" fill="#F9F5ED"/>
<path d="M245.206 22.56C245.136 22.824 245.08 23.074 245.01 23.3657C245.29 23.3935 245.514 23.4074 245.738 23.4352C247.109 23.6019 247.753 24.352 247.655 25.7134C247.627 26.0468 247.571 26.3941 247.473 26.7275C246.325 31.0617 245.178 35.4097 244.016 39.7439C243.834 40.4246 243.652 41.1053 243.442 41.8832C243.274 41.6193 243.176 41.4526 243.078 41.2859C239.537 35.1875 236.01 29.0891 232.483 22.9768C232.301 22.6573 232.091 22.5322 231.713 22.5322C229.124 22.5461 226.534 22.5322 223.945 22.5322C223.217 22.5322 223.161 22.5878 223.161 23.3657C224.729 23.3657 225.611 24.3659 226.352 25.5745C226.492 25.7968 226.604 26.0329 226.772 26.2413C227.01 26.5469 227.01 26.8386 226.912 27.1998C225.541 32.2841 224.183 37.3823 222.811 42.4667C222.335 44.2309 221.845 45.9951 221.342 47.7455C221.02 48.8707 220.278 49.5514 219.046 49.6347C218.374 49.6764 218.332 49.7598 218.318 50.5377H218.85C220.922 50.5377 223.007 50.5377 225.079 50.5377C225.611 50.5377 225.895 50.2599 225.932 49.7042C225.75 49.6764 225.555 49.6486 225.359 49.6069C224.449 49.4402 223.721 49.0374 223.357 48.1344C223.105 47.5093 223.175 46.8842 223.357 46.2591C224.631 41.4526 225.904 36.6322 227.192 31.8257C227.486 30.7283 227.78 29.6308 228.102 28.4223C228.256 28.6862 228.368 28.839 228.466 29.0057C232.553 36.0904 236.654 43.1612 240.699 50.2737C241.119 50.9961 241.553 51.3017 242.35 51.1489C242.378 51.1489 242.42 51.135 242.476 51.1211C242.518 50.9822 242.56 50.8294 242.602 50.6766C244.548 43.4113 246.479 36.146 248.439 28.8807C248.747 27.7277 249.083 26.5886 249.531 25.4772C249.964 24.3937 250.818 23.6297 252.022 23.463C252.54 23.3935 252.848 23.2268 252.974 22.7406V22.5461H245.192L245.206 22.56Z" fill="#F9F5ED"/>
<path d="M188.113 23.4903C188.715 23.3931 188.883 23.1152 188.883 22.5596H188.337C186.126 22.5596 183.928 22.5596 181.717 22.5596C181.325 22.5596 181.101 22.6707 180.891 23.0041C176.776 29.297 172.661 35.576 168.546 41.855C168.434 42.0217 168.322 42.1884 168.14 42.4523C168.098 42.1884 168.084 42.0634 168.056 41.9383C167.72 38.9655 167.37 36.0066 167.035 33.0338C166.657 29.7276 166.265 26.4214 165.901 23.1013C165.859 22.6846 165.747 22.5596 165.313 22.5596C162.556 22.5735 159.812 22.5596 157.055 22.5596C156.369 22.5596 156.355 22.5735 156.341 23.3653C156.523 23.3792 156.719 23.3931 156.915 23.407C157.405 23.4764 157.909 23.5042 158.371 23.6292C159.462 23.9348 159.966 24.6989 159.84 25.7963C159.798 26.1992 159.728 26.602 159.63 27.0049C158.315 31.8669 156.999 36.7429 155.669 41.6049C155.124 43.6053 154.578 45.6057 154.018 47.5922C153.668 48.8008 152.94 49.5787 151.582 49.6621C150.981 49.6899 150.897 49.8288 150.925 50.5511H151.456C153.374 50.5511 155.277 50.5511 157.195 50.5511C157.718 50.5511 158.025 50.2826 158.119 49.7454C158.119 49.7454 158.063 49.7037 158.035 49.7037C157.825 49.676 157.615 49.6482 157.405 49.6204C156.215 49.4537 155.655 48.8147 155.711 47.6339C155.725 47.3005 155.781 46.9532 155.865 46.6198C157.447 40.6742 159.043 34.7286 160.638 28.7969C160.666 28.7135 160.722 28.6302 160.806 28.4218C161.688 36.09 162.542 43.6331 163.395 51.1207C163.983 51.2874 164.305 51.1207 164.599 50.6484C169.47 43.1191 174.355 35.5899 179.24 28.0745C179.338 27.9078 179.449 27.755 179.561 27.6022C179.603 27.7689 179.575 27.9078 179.547 28.0329C177.826 34.3674 176.118 40.6881 174.383 47.0227C173.879 48.8703 173.067 49.5093 171.136 49.6621C170.641 49.6991 170.375 49.9955 170.338 50.5511H182.725C183.257 50.5511 183.56 50.2779 183.634 49.7315C183.257 49.7038 182.879 49.676 182.501 49.6343C181.059 49.4815 180.387 48.7174 180.485 47.2727C180.513 46.8838 180.569 46.4948 180.667 46.1197C182.207 40.2297 183.746 34.3396 185.3 28.4635C185.594 27.3661 185.874 26.2547 186.252 25.1712C186.546 24.3099 187.162 23.657 188.099 23.5042L188.113 23.4903Z" fill="#F9F5ED"/>
<path d="M144.738 47.6892C142.975 44.0774 141.169 40.4795 139.378 36.8815C139.294 36.7148 139.224 36.5342 139.154 36.3675C139.84 36.2286 140.483 36.1592 141.085 35.9786C144.347 34.9645 146.796 33.0336 147.594 29.6301C148.419 26.1572 147.02 23.8512 143.633 23.0594C142.443 22.7816 141.197 22.601 139.966 22.5871C135.025 22.5315 130.084 22.5593 125.129 22.5454C124.663 22.5454 124.401 22.814 124.345 23.3511C124.709 23.3789 125.031 23.3928 125.353 23.4345C126.683 23.5595 127.257 24.2541 127.103 25.5738C127.061 25.935 126.977 26.2822 126.879 26.6295C125.969 30.0052 125.059 33.367 124.15 36.7426C123.198 40.285 122.218 43.8273 121.28 47.3836C120.944 48.6477 120.189 49.3979 118.887 49.6062C118.677 49.634 118.467 49.6479 118.243 49.6757C117.585 49.7313 117.487 49.8563 117.585 50.5786H130.28C130.793 50.5786 131.073 50.3054 131.12 49.759C130.602 49.7174 130.07 49.7035 129.552 49.6479C127.943 49.4812 127.285 48.6477 127.677 47.1057C128.53 43.744 129.454 40.3822 130.35 37.0205C130.42 36.7565 130.56 36.7009 130.812 36.7009C131.47 36.7009 132.128 36.7287 132.785 36.7009C133.149 36.7009 133.331 36.826 133.485 37.1594C134.815 40.021 136.145 42.8827 137.502 45.7305C138.02 46.8279 138.538 47.9115 139.126 48.9672C139.7 49.9813 140.609 50.5092 141.799 50.5231C143.815 50.537 145.816 50.5509 147.832 50.5648C148.531 50.5648 148.587 50.4953 148.601 49.7174C148.28 49.6896 147.958 49.6618 147.622 49.634C146.292 49.5229 145.312 48.9394 144.71 47.7031L144.738 47.6892ZM135.053 35.1868C133.877 35.3674 132.659 35.3535 131.47 35.409C131.288 35.409 131.092 35.3535 130.826 35.3257C131.358 33.3392 131.876 31.436 132.379 29.5329C132.771 28.102 133.177 26.6712 133.541 25.2404C133.793 24.2263 134.395 23.6567 135.445 23.5734C136.648 23.4761 137.852 23.5178 139.014 23.9068C140.777 24.4902 141.603 25.796 141.547 27.8659C141.421 31.9083 139.098 34.5755 135.053 35.2007V35.1868Z" fill="#F9F5ED"/>
<path d="M118.439 22.5876H96.2968C96.2268 22.8516 96.1568 23.0877 96.0728 23.3933C96.3948 23.4072 96.6747 23.4211 96.9546 23.4489C98.5222 23.5878 99.1661 24.3935 98.9281 25.9077C98.9141 26.005 98.8861 26.1022 98.8581 26.1994C98.3263 28.2137 97.7944 30.2419 97.2485 32.2562C95.9049 37.2849 94.5612 42.3137 93.2035 47.3424C92.7976 48.8427 91.7899 49.6485 90.2643 49.7318C89.7977 49.7596 89.5645 50.042 89.5645 50.5792H102.497C105.912 50.5792 109.314 50.5792 112.729 50.5792C113.093 50.5792 113.289 50.4958 113.387 50.1069C113.498 49.6207 113.68 49.1345 113.834 48.6621C114.338 46.9952 114.856 45.3282 115.36 43.6334C114.674 43.4389 114.296 43.6334 113.96 44.2168C112.911 46.0922 111.441 47.5508 109.398 48.3843C108.152 48.8983 106.85 49.2039 105.52 49.2456C103.981 49.2873 102.427 49.3151 100.888 49.2456C99.7539 49.19 99.446 48.6483 99.7259 47.5508C99.9499 46.6757 100.188 45.8144 100.412 44.9531C101.112 42.2859 101.797 39.6187 102.497 36.9515C102.539 36.7848 102.721 36.5348 102.833 36.5209C104.065 36.4792 105.297 36.4653 106.5 36.8404C107.886 37.271 108.67 38.2018 108.88 39.6048C108.922 39.8688 108.922 40.1466 108.95 40.4105C109.547 40.4846 109.92 40.2577 110.069 39.7299C110.699 37.3961 111.329 35.0623 111.959 32.7285C112.001 32.5618 112.029 32.3951 112.057 32.2423C111.427 32.1034 111.049 32.2701 110.671 32.7841C110.209 33.3953 109.607 33.9648 108.95 34.3538C107.102 35.4373 105.031 35.229 102.973 35.2151C103.001 35.0484 103.029 34.9373 103.057 34.8261C103.617 32.7007 104.163 30.5614 104.737 28.436C105.031 27.3385 105.325 26.2272 105.66 25.1437C105.926 24.2824 106.556 23.7962 107.466 23.824C108.782 23.8656 110.111 23.8518 111.399 24.0462C113.666 24.3935 115.206 25.6577 115.724 27.9637C115.808 28.3387 115.864 28.7277 115.934 29.1167C116.172 29.1167 116.368 29.0889 116.564 29.1167C116.942 29.1722 117.11 29.0472 117.18 28.6444C117.32 27.7831 117.529 26.9218 117.711 26.0605C117.949 24.9075 118.187 23.7684 118.439 22.5737V22.5876Z" fill="#F9F5ED"/>
<path d="M61.08 47.6895C60.8421 46.9255 60.6462 46.1475 60.4782 45.3696C58.7286 37.368 56.9931 29.3665 55.2715 21.351C55.1735 20.9204 54.9776 20.7676 54.6136 20.8787C54.4037 20.9482 54.1658 21.1288 54.0538 21.3094C49.6169 28.6997 45.194 36.1039 40.7571 43.4942C39.8753 44.9667 38.9935 46.4392 38.0558 47.884C37.4679 48.7869 36.6281 49.4121 35.5084 49.5926C34.8926 49.6899 34.7946 49.8288 34.8366 50.5512H35.3684C37.8178 50.5512 40.2812 50.5512 42.7306 50.5512C43.4724 50.5512 43.5564 50.4678 43.5144 49.6621C43.2625 49.6621 42.9965 49.6621 42.7446 49.6204C42.3387 49.5649 41.9188 49.5232 41.5409 49.3982C40.7011 49.1203 40.2812 48.4257 40.4772 47.5506C40.5891 47.0505 40.7711 46.5365 41.009 46.092C41.6809 44.8278 42.4087 43.5776 43.1365 42.3273C43.2205 42.1884 43.4304 42.0634 43.5844 42.0495C46.7756 42.0356 49.9808 42.0356 53.172 42.0495C53.298 42.0495 53.5219 42.2162 53.5499 42.3412C53.8578 43.7582 54.1798 45.1751 54.4037 46.606C54.6836 48.2868 53.9698 49.2176 52.2902 49.5371C52.0663 49.5788 51.8283 49.5926 51.6044 49.6065C50.8626 49.6482 50.7926 49.7316 50.8206 50.5234H51.4085C55.3975 50.5234 59.3865 50.5234 63.3755 50.5234C64.1173 50.5234 64.1733 50.4678 64.2013 49.6343C64.0333 49.6343 63.8513 49.6065 63.6834 49.5926C62.3817 49.5232 61.4579 48.912 61.08 47.6478V47.6895ZM44.2702 40.4103C46.4817 36.7012 48.6511 33.0616 50.8206 29.422C50.8626 29.422 50.9046 29.422 50.9466 29.422C51.6884 33.0616 52.4442 36.7012 53.2 40.4103H44.2702Z" fill="#F9F5ED"/>
<path d="M90.2212 30.2694H90.991C91.4109 27.6995 91.8168 25.1573 92.2367 22.6012C92.0827 22.5874 91.9708 22.5596 91.8588 22.5596C84.4546 22.5596 77.0645 22.5596 69.6603 22.5596C69.3524 22.5596 69.2404 22.6568 69.1704 22.9485C68.8905 24.3238 68.5826 25.6852 68.2747 27.0604C68.0507 28.0606 67.8408 29.0469 67.6168 30.061C68.3866 30.1444 68.3586 30.1305 68.6106 29.5054C69.8423 26.5326 71.6898 24.2405 75.1749 23.8793C76.0007 23.7959 76.8265 23.782 77.7083 23.7404C77.6523 23.9765 77.6383 24.0876 77.6103 24.1988C75.8328 30.8112 74.0552 37.4375 72.2777 44.0499C71.9417 45.2862 71.5918 46.5365 71.1579 47.745C70.752 48.898 69.8703 49.5232 68.6246 49.6343C68.3306 49.6621 68.0367 49.6899 67.7428 49.6899C67.001 49.7176 67.001 49.7176 66.959 50.565H80.6476C81.1794 50.565 81.4967 50.3057 81.5993 49.7871C80.8155 49.7037 80.0597 49.6621 79.3179 49.5093C78.3801 49.3148 77.9602 48.7313 77.9882 47.7867C77.9882 47.3977 78.0582 47.0088 78.1562 46.6337C80.0597 39.4934 81.9632 32.3531 83.8808 25.2129C84.0067 24.7406 84.0347 24.0876 84.3566 23.8793C84.7066 23.6431 85.3364 23.7959 85.8403 23.8376C88.2757 24.0043 89.5634 25.1434 89.9693 27.5467C90.1232 28.4357 90.1512 29.3526 90.2352 30.2833L90.2212 30.2694Z" fill="#F9F5ED"/>
<path d="M212.69 47.9249C212.522 47.4526 212.354 46.9664 212.242 46.4802C210.857 40.2567 209.471 34.0194 208.099 27.796C207.665 25.8095 207.217 23.823 206.784 21.8504C206.196 21.6837 205.874 21.8504 205.566 22.3644C200.597 30.5048 195.614 38.6453 190.618 46.7719C190.254 47.3692 189.848 47.9527 189.4 48.4945C188.868 49.1335 188.182 49.5363 187.342 49.6475C186.643 49.7447 186.643 49.7447 186.601 50.5643H187.174C189.596 50.5643 192.017 50.5643 194.439 50.5643C195.194 50.5643 195.208 50.5504 195.236 49.7586C194.649 49.6752 194.061 49.6475 193.487 49.5085C192.395 49.2585 191.947 48.4806 192.255 47.397C192.395 46.9247 192.591 46.4663 192.829 46.0495C193.459 44.9243 194.159 43.8269 194.789 42.7017C194.97 42.3683 195.194 42.2571 195.572 42.2571C198.568 42.271 201.577 42.2571 204.572 42.2571H205.118C205.342 43.3407 205.566 44.3548 205.762 45.3827C205.888 46.0912 206.028 46.7997 206.042 47.5082C206.056 48.4806 205.566 49.1057 204.628 49.3974C204.18 49.5363 203.704 49.6058 203.228 49.6475C202.487 49.7308 202.487 49.703 202.459 50.5226H214.86C215.391 50.5226 215.704 50.2448 215.797 49.6891C215.531 49.6613 215.279 49.6197 215.028 49.5919C213.908 49.4946 213.11 48.9529 212.718 47.8832L212.69 47.9249ZM195.978 40.7707C198.176 37.1172 200.317 33.5332 202.557 29.8103C203.326 33.5471 204.068 37.1311 204.81 40.7707H195.978Z" fill="#F9F5ED"/>
<path d="M129.887 67.9021C129.887 67.9021 129.957 67.8326 129.985 67.8187C131.245 67.0825 131.777 66.0684 131.553 64.7765C131.357 63.6235 130.489 62.7205 129.09 62.5816C127.816 62.4427 126.5 62.5538 125.185 62.5538V72.7919H126.626V68.3466C127.788 68.166 128.796 68.3327 129.495 69.3468C130.209 70.3887 130.895 71.4444 131.609 72.4863C131.707 72.6252 131.847 72.8058 131.987 72.8197C132.477 72.8614 132.981 72.8336 133.61 72.8336C132.225 71.1805 131.511 69.2079 129.887 67.9021ZM129.048 66.763C128.278 66.9435 127.48 66.9713 126.64 67.0686V63.5957C127.466 63.6929 128.264 63.7207 129.034 63.9013C129.747 64.068 130.083 64.6237 130.069 65.3321C130.069 66.0406 129.733 66.6102 129.034 66.7769L129.048 66.763Z" fill="#F9F5ED"/>
<path d="M110.18 62.8309C109.984 62.4003 109.718 62.4002 109.34 62.3725C108.934 62.3447 108.85 62.5669 108.724 62.8587C107.381 66.0121 106.023 69.1516 104.665 72.305C104.595 72.4578 104.539 72.6245 104.441 72.8467C104.833 72.8467 105.169 72.8189 105.491 72.8467C105.855 72.8884 106.009 72.7356 106.135 72.4161C106.443 71.6382 106.779 70.888 107.087 70.1101C107.199 69.8461 107.325 69.735 107.633 69.735C108.864 69.7489 110.096 69.7489 111.342 69.735C111.65 69.735 111.804 69.8461 111.93 70.124C112.265 70.9158 112.629 71.7076 113.007 72.4855C113.077 72.6245 113.259 72.8051 113.399 72.8189C113.791 72.8606 114.183 72.8328 114.617 72.8328C114.547 72.6384 114.491 72.4855 114.435 72.3327C113.007 69.1655 111.58 65.9982 110.18 62.817V62.8309ZM107.857 68.4292C108.374 67.1928 108.878 65.9843 109.438 64.6507C109.998 65.9009 110.502 67.0123 111.006 68.1236C111.048 68.2069 111.076 68.3042 111.118 68.4292H107.857Z" fill="#F9F5ED"/>
<path d="M93.6918 62.5116C92.1241 62.3865 90.5425 62.4838 88.9189 62.4838V72.8052H90.3746V68.3321C91.3543 68.3321 92.2501 68.3738 93.1599 68.3321C94.3356 68.2627 95.4133 67.9432 96.0432 66.8318C97.1069 64.9287 95.9452 62.6922 93.7057 62.5116H93.6918ZM93.3978 66.9708C92.4741 67.0402 91.5503 67.0124 90.6265 66.9986C90.5285 66.9986 90.3606 66.8041 90.3606 66.7068C90.3466 65.7483 90.3606 64.7759 90.3606 63.8035C91.4523 63.8035 92.5021 63.7201 93.5238 63.8313C94.4616 63.9285 94.9234 64.5675 94.8955 65.401C94.8675 66.2206 94.2796 66.9013 93.4118 66.9708H93.3978Z" fill="#F9F5ED"/>
<path d="M162.247 67.8603C161.743 67.4713 161.155 67.2074 160.61 66.874C160.106 66.5684 159.574 66.2905 159.112 65.9432C158.664 65.6098 158.426 65.1375 158.58 64.568C158.72 64.0401 159.182 63.8595 159.644 63.7345C160.708 63.4566 161.659 63.7623 162.541 64.3318C162.681 64.4291 162.821 64.5263 163.031 64.6791C163.031 64.2207 163.003 63.8595 163.031 63.4983C163.073 63.1371 162.919 62.9704 162.611 62.8176C161.645 62.3592 160.638 62.2064 159.588 62.3731C158.93 62.4842 158.328 62.7343 157.838 63.2066C156.802 64.1929 156.733 65.7904 157.81 66.7351C158.538 67.3741 159.448 67.8047 160.26 68.3604C160.75 68.6938 161.281 69.0411 161.659 69.4856C162.205 70.1246 161.995 70.9303 161.281 71.361C160.722 71.7082 160.106 71.7499 159.476 71.6249C158.566 71.4443 157.838 70.9164 157.096 70.1941C157.096 70.8053 157.068 71.2776 157.11 71.736C157.124 71.9027 157.264 72.125 157.418 72.2083C158.412 72.7779 159.504 73.0002 160.638 72.9168C161.953 72.8196 163.003 72.0278 163.353 70.9025C163.703 69.7773 163.325 68.666 162.247 67.8325V67.8603Z" fill="#F9F5ED"/>
<path d="M144.234 72.8195H145.648V62.498H144.234V72.8195Z" fill="#F9F5ED"/>
</svg>
