<svg width="295" height="60" viewBox="0 0 295 60" fill="none" xmlns="http://www.w3.org/2000/svg">
<path d="M65.2942 0.403917C60.7213 -1.00714 56.1337 1.37856 54.6094 6.00449C53.6421 8.95752 52.748 11.9251 51.8246 14.8927C50.6667 18.5876 49.5089 22.268 48.2484 26.2829C46.0498 20.886 43.9686 15.8237 41.902 10.7468C40.3923 7.03732 37.4903 4.94256 33.8261 4.94256C30.2058 4.94256 27.2745 7.05187 25.7502 10.7613C24.2698 14.3981 22.7895 18.0494 21.3091 21.6861C21.016 22.3989 20.6789 23.0971 20.3271 23.8681C20.1659 23.679 20.1219 23.6499 20.0926 23.6063C18.8321 20.5514 17.601 17.482 16.2965 14.4417C14.4498 10.1504 9.67163 8.17199 5.37719 9.85943C1.00946 11.5614 -1.1451 16.3183 0.613722 20.7115C4.54175 30.4579 8.48443 40.1898 12.5444 49.8781C13.9368 53.1802 16.6776 54.8677 20.3271 54.9113C23.8887 54.955 26.8348 52.8893 28.2711 49.398C30.1032 44.9758 31.8914 40.5244 33.7967 35.8403C34.1339 36.5967 34.3684 37.1059 34.5736 37.6296C36.8454 43.1865 39.0879 48.758 41.4036 54.2858C42.9133 57.8789 46.0059 59.7991 49.7727 59.6245C53.3929 59.4645 56.3243 57.2243 57.4675 53.573C61.9232 39.3606 66.3642 25.1337 70.7612 10.9068C72.1683 6.33907 69.7206 1.74224 65.2796 0.374823L65.2942 0.403917Z" fill="#F9F5ED"/>
<path d="M123.657 13.5987C121.942 13.8896 121.151 15.1406 120.667 16.639C119.275 20.9158 117.882 25.1926 116.49 29.4694C115.786 31.6078 115.068 33.7462 114.247 36.2192C113.954 35.4045 113.793 34.9827 113.646 34.5608C111.653 28.582 109.66 22.6032 107.666 16.6099C106.89 14.2969 105.497 13.2786 103.313 13.3805C101.408 13.4677 100.192 14.4278 99.488 16.4935C97.4946 22.4287 95.5306 28.3638 93.5373 34.2844C93.3614 34.8227 93.1416 35.3464 92.8045 36.2337C90.5473 29.3239 88.4514 22.836 86.3115 16.3626C85.5347 14.006 83.4681 12.9586 81.2696 13.7296C79.2029 14.4569 78.4115 16.3335 79.2469 18.6756C82.2809 27.1419 85.3295 35.6082 88.3928 44.06C89.2722 46.4748 90.5327 47.3621 92.7605 47.3476C94.9444 47.3476 96.1462 46.3729 97.011 43.9291C97.8464 41.5434 98.6672 39.1431 99.5026 36.7429C100.778 33.0916 102.053 29.4403 103.401 25.5563C103.651 26.1672 103.812 26.5455 103.944 26.9237C105.937 32.6406 107.916 38.343 109.924 44.06C110.803 46.5475 112.166 47.4931 114.57 47.3476C116.71 47.2312 117.809 45.9365 118.483 44.0891C120.125 39.5068 121.766 34.939 123.408 30.3713C124.859 26.3272 126.369 22.3123 127.746 18.2537C128.699 15.4316 126.588 13.0895 123.657 13.5841V13.5987Z" fill="#F9F5ED"/>
<path d="M183.735 13.5979C181.741 13.4815 180.378 14.238 179.352 15.94C176.597 20.4931 173.753 25.0027 170.778 29.7741C170.045 28.5958 169.459 27.6939 168.887 26.7629C166.586 23.068 164.314 19.3439 161.999 15.6636C160.797 13.7579 158.862 13.1033 156.693 13.7434C154.919 14.2816 154.113 15.5472 154.113 17.8456C154.113 26.2828 154.113 34.7201 154.099 43.1573C154.099 44.6265 154.509 45.8194 155.784 46.5904C158.247 48.0887 161.237 46.3722 161.266 43.3609C161.324 38.7059 161.266 34.0509 161.28 29.3813C161.28 28.8431 161.324 28.3049 161.368 27.4029C161.881 28.1303 162.175 28.5231 162.453 28.9449C164.139 31.5052 165.795 34.08 167.495 36.6112C169.371 39.4042 171.965 39.3896 173.856 36.5821C175.6 34.0073 177.271 31.3743 178.986 28.7849C179.279 28.3485 179.601 27.9121 179.909 27.4902C179.997 27.5339 180.1 27.5775 180.188 27.6357C180.188 28.1448 180.188 28.6394 180.188 29.1486C180.188 33.9054 180.158 38.6768 180.188 43.4337C180.202 45.5575 181.815 47.1577 183.808 47.1286C185.845 47.1141 187.428 45.5575 187.428 43.4337C187.458 34.7346 187.458 26.0355 187.428 17.351C187.428 15.0817 185.963 13.7288 183.72 13.5833L183.735 13.5979Z" fill="#F9F5ED"/>
<path d="M203.932 21.0608C196.12 21.1044 190.125 26.8796 190.154 34.3567C190.184 41.7611 196.149 47.4199 203.946 47.4344C211.685 47.449 217.826 41.5865 217.841 34.1967C217.856 26.7632 211.773 21.0172 203.932 21.0608ZM204.064 41.2374C200.209 41.2374 197.336 38.2407 197.307 34.1967C197.278 30.1381 200.004 27.2578 203.888 27.2578C207.743 27.2578 210.63 30.2399 210.645 34.284C210.645 38.328 207.904 41.2374 204.064 41.2374Z" fill="#F9F5ED"/>
<path d="M258.177 21.0744C250.189 20.8125 244.341 27.0386 244.927 35.3449C245.279 40.3782 247.668 44.2622 252.49 46.2406C257.517 48.2917 262.427 47.9135 266.854 44.5386C268.246 43.4767 268.466 41.8183 267.543 40.5527C266.59 39.258 265.051 39.0689 263.512 39.9418C262.471 40.5236 261.401 41.1637 260.258 41.411C256.843 42.1674 252.93 41.091 252.256 36.6832C252.842 36.6832 253.399 36.6832 253.941 36.6832C258.016 36.6832 262.105 36.7123 266.18 36.6832C268.539 36.6541 269.8 35.3886 269.814 33.1483C269.888 26.6604 264.714 21.2926 258.162 21.0889L258.177 21.0744ZM252.27 32.1882C252.08 29.4098 254.439 26.9513 257.342 26.8495C260.361 26.7477 262.647 28.9588 262.721 32.1882H252.27Z" fill="#F9F5ED"/>
<path d="M135.353 21.526C129.299 23.1989 125.606 28.8868 126.265 35.8839C126.734 40.9462 129.402 44.6557 134.253 46.4595C139.237 48.2924 144.029 47.7833 148.294 44.4084C149.54 43.4192 149.687 41.6881 148.778 40.4952C147.884 39.3024 146.301 39.0696 144.85 39.9134C144.176 40.3061 143.516 40.7425 142.798 41.0335C139.5 42.3573 134.458 41.819 133.476 36.6985H135.294C139.222 36.6985 143.135 36.713 147.063 36.6985C150.039 36.6839 151.211 35.4184 151.065 32.4653C150.654 24.6245 143.15 19.3876 135.367 21.5406L135.353 21.526ZM133.55 32.1744C133.257 29.5414 135.866 26.9666 138.299 26.8502C141.479 26.7047 143.648 28.5522 144.073 32.1744H133.55Z" fill="#F9F5ED"/>
<path d="M234.463 21.0605C231.399 21.0605 229.113 22.5443 227.222 24.7846C227.105 24.6391 227.017 24.5809 227.002 24.5082C226.284 22.0788 224.877 21.0315 222.752 21.3369C220.861 21.6133 219.762 23.0971 219.747 25.4101C219.747 31.3161 219.747 37.2077 219.747 43.1137C219.747 45.514 221.242 47.1432 223.353 47.1432C225.493 47.1432 226.973 45.5285 226.988 43.1428C227.002 39.7825 226.988 36.4221 226.988 33.0472C226.988 32.3344 227.032 31.5925 227.207 30.8943C227.808 28.5522 229.509 27.403 231.971 27.5921C234.155 27.7521 235.606 29.2214 235.782 31.578C235.884 33.0181 235.84 34.4728 235.855 35.9275C235.884 38.5605 235.796 41.2081 235.958 43.8411C236.075 45.834 237.76 47.2014 239.636 47.1432C241.483 47.085 243.081 45.6885 243.095 43.7974C243.139 38.7351 243.242 33.6437 242.949 28.5959C242.67 23.8972 239.211 21.0605 234.448 21.0605H234.463Z" fill="#F9F5ED"/>
<path d="M293.633 22.3261C292.695 21.3078 291.464 21.0751 290.174 21.3951C288.562 21.8024 287.931 23.1262 287.418 24.5227C285.762 29.0904 284.091 33.6582 282.274 38.6623C280.398 33.6873 278.668 29.1486 276.953 24.6245C275.825 21.6424 274.183 20.6386 271.838 21.526C269.728 22.3261 269.185 24.4209 270.402 27.1848C272.996 33.1199 275.59 39.0405 278.155 44.9757C279.152 47.2596 278.067 48.6852 275.532 48.4233C274.814 48.3506 274.095 48.0742 273.377 48.0596C271.296 47.9869 269.757 49.9507 270.607 51.8273C271.003 52.7001 271.97 53.6311 272.879 53.9221C277.95 55.5222 282.157 54.533 284.575 49.0197C286.568 44.4665 288.459 39.8697 290.394 35.302C291.64 32.3489 292.915 29.3959 294.131 26.4283C294.718 25.0027 294.747 23.5771 293.618 22.3552L293.633 22.3261Z" fill="#F9F5ED"/>
</svg>
