<svg width="59" height="80" viewBox="0 0 59 80" fill="none" xmlns="http://www.w3.org/2000/svg">
<path d="M53.627 0.38835L50.4882 9.32039H49.4671C46.593 5.04854 44.2861 3.24801 41.6768 3.24801C38.5379 3.24801 36.7605 5.93116 35.2478 12.5684L33.3948 20.5472H43.7189L41.5255 24.4307H32.5628L24.0917 61.5004C21.0285 74.8455 9.9481 79.188 0.720703 80V78.4113C6.73364 76.6814 9.9481 72.1624 11.8011 63.9365L20.8395 24.4307H16.4527L16.9443 22.2065L21.5202 20.5472H21.6714C24.9237 6.63725 34.6806 0 47.6897 0C49.4671 0 51.7361 0.141218 53.627 0.38835Z" fill="white"/>
<path d="M42.9634 55.5691C42.9634 51.5444 46.2535 48.4729 50.6781 48.4729C55.1027 48.4729 58.2794 51.5444 58.2794 55.5691C58.2794 59.5938 54.9893 62.6653 50.6781 62.6653C46.3669 62.6653 42.9634 59.5938 42.9634 55.5691Z" fill="white"/>
</svg>
