<svg width="59" height="82" viewBox="0 0 59 82" fill="none" xmlns="http://www.w3.org/2000/svg">
<path d="M53.627 0.396977L50.4882 9.52744H49.4671C46.593 5.1607 44.2861 3.32017 41.6768 3.32017C38.5379 3.32017 36.7605 6.06291 35.2478 12.8476L33.3948 21.0037H43.7189L41.5255 24.9734H32.5628L24.0917 62.8667C21.0285 76.5082 9.9481 80.9471 0.720703 81.7772V80.1532C6.73364 78.3848 9.9481 73.7655 11.8011 65.3568L20.8395 24.9734H16.4527L16.9443 22.6998L21.5202 21.0037H21.6714C24.9237 6.78469 34.6806 0 47.6897 0C49.4671 0 51.7361 0.144355 53.627 0.396977Z" fill="#003366"/>
<path d="M42.9629 56.8037C42.9629 52.6895 46.253 49.5498 50.6776 49.5498C55.1022 49.5498 58.2789 52.6895 58.2789 56.8037C58.2789 60.9178 54.9888 64.0575 50.6776 64.0575C46.3664 64.0575 42.9629 60.9178 42.9629 56.8037Z" fill="#003366"/>
</svg>
