<svg width="139" height="49" viewBox="0 0 139 49" fill="none" xmlns="http://www.w3.org/2000/svg">
<path d="M30.1752 0.258235L28.3737 5.74572H27.7947C26.1862 3.09881 24.8351 2.00132 23.3553 2.00132C21.5537 2.00132 20.5243 3.61528 19.6879 7.68248L18.6585 12.5889H24.5134L23.2909 14.9776H18.2081L13.3826 37.7022C11.5811 45.8366 5.27584 48.5481 0 49V48.0316C3.41 46.9987 5.27584 44.2227 6.30528 39.1871L11.4524 14.9776H8.9432L9.20055 13.6219L11.8385 12.5889H11.9028C13.7687 4.06719 19.3662 0 26.7652 0C27.7947 0 29.0815 0.0645586 30.1752 0.258235Z" fill="#F9F5ED"/>
<path d="M23.87 25.6298C23.87 18.2701 29.0171 12.718 35.9015 12.718C39.1828 12.718 41.9494 14.0092 43.9439 16.2042V13.2991H50.1848V29.8261C50.1848 31.1173 50.8926 31.892 52.2437 31.892H52.7584V37.9605H50.9569C47.5469 37.9605 45.4237 36.7339 44.4586 34.3452C42.4641 36.9275 39.5045 38.4769 35.9015 38.4769C29.0171 38.4769 23.87 32.9249 23.87 25.6298ZM43.9439 25.6298C43.9439 21.7563 41.0486 18.7866 37.1239 18.7866C33.1992 18.7866 30.3683 21.7563 30.3683 25.6298C30.3683 29.5033 33.2635 32.473 37.1239 32.473C40.9843 32.473 43.9439 29.5033 43.9439 25.6298Z" fill="#F9F5ED"/>
<path d="M57.1335 3.09882H63.4388V16.1397C65.4333 13.9447 68.1356 12.6535 71.4812 12.6535C78.3656 12.6535 83.4484 18.2055 83.4484 25.5652C83.4484 32.9249 78.3656 38.4769 71.4812 38.4769C68.1999 38.4769 65.4333 37.1858 63.4388 34.9908V37.8959H57.1335V3.09882ZM76.8857 25.6298C76.8857 21.7563 74.0548 18.7866 70.1301 18.7866C66.2054 18.7866 63.3744 21.7563 63.3744 25.6298C63.3744 29.5033 66.2697 32.473 70.1301 32.473C73.9905 32.473 76.8857 29.5033 76.8857 25.6298Z" fill="#F9F5ED"/>
<path d="M86.4724 32.3439L91.9412 6.52043C92.5846 3.48617 92.0699 2.58235 90.4614 2.06588L90.5258 1.48485L99.5976 0.0645626H99.9837L93.2924 32.0856C93.1637 32.7312 92.842 33.8933 93.5497 33.8933C94.3218 33.8933 95.9303 32.0856 97.1527 30.1489L97.9248 30.6008C95.4799 35.1199 92.649 38.4769 89.3676 38.4769C85.5716 38.5415 85.9576 34.9262 86.4724 32.3439Z" fill="#F9F5ED"/>
<path d="M100.177 25.6298C100.177 18.2701 105.839 12.718 113.366 12.718C120.894 12.718 126.556 18.2701 126.556 25.6943C126.556 26.3399 126.492 27.2437 126.363 27.8248H106.804C107.64 31.0527 110.149 33.1186 113.495 33.1186C116.069 33.1186 118.256 31.9565 119.35 30.3426H126.17C124.304 35.249 119.414 38.6061 113.431 38.6061C105.903 38.5415 100.177 32.9895 100.177 25.6298ZM106.932 23.1765H119.865C119.093 20.1423 116.583 18.141 113.366 18.141C110.149 18.141 107.833 20.1423 106.932 23.1765Z" fill="#F9F5ED"/>
<path d="M129.387 34.0224C129.387 31.5692 131.253 29.697 133.762 29.697C136.271 29.697 138.073 31.5692 138.073 34.0224C138.073 36.4756 136.207 38.3478 133.762 38.3478C131.317 38.4124 129.387 36.5402 129.387 34.0224Z" fill="#F9F5ED"/>
</svg>
